<svg xmlns="http://www.w3.org/2000/svg" version="1.2" baseProfile="tiny-ps" width="59" height="62" viewBox="0 0 218 231"
     preserveAspectRatio="xMidYMid meet" fill="none">
    <g fill="#334155">
        <path d="M94.75 202.95 c-11.35 -0.80 -23.40 -3.30 -32.70 -6.75 -27.65 -10.35 -45.35 -30.20 -52.35 -58.90 -1.85 -7.75 -2.70 -15.45 -2.70 -24.95 0.05 -15.05 1.35 -23.95 5.10 -34.80 8.05 -23.30 24.75 -40.95 47.30 -49.95 7.45 -3 17.25 -5.65 25.60 -6.90 4.35 -0.70 8.95 -0.90 19 -0.95 14.60 0 19.90 0.50 30.55 2.80 26.50 5.75 44.80 18 56.10 37.50 8.10 14.05 11.80 29.55 11.85 49.20 0 7.10 -0.95 18.50 -1.70 20.90 -0.15 0.45 -0.40 1.15 -0.50 1.55 -0.20 0.60 -0.50 0.60 -2.15 0 -2.60 -0.90 -7.60 -0.85 -10.50 0.10 -3.25 1.10 -5.35 2.75 -7 5.60 -1.25 2.10 -1.40 2.85 -1.40 6.85 0 4.85 0.85 7.30 3.35 9.60 1.35 1.30 5.25 3.10 6.65 3.15 2.50 0.05 2.50 0.75 0 4.90 -9.20 15.45 -22.35 26.60 -40 33.90 -15 6.15 -33.70 8.60 -54.50 7.15z m-29.50 -46.25 c1.95 -0.35 5.10 -1.50 7.10 -2.45 3.40 -1.70 8.40 -5.85 9.55 -8 0.80 -1.50 1.30 -0.50 0.65 1.30 -1 2.90 -0.70 5.75 0.85 7.45 1.90 2.15 4.65 2.70 9.70 1.95 4.40 -0.65 4.45 -0.70 5.10 -5.05 l0.35 -2.40 -2.65 0 c-1.45 0 -3.50 -0.15 -4.60 -0.35 l-1.90 -0.30 0.30 -3.05 c0.15 -1.70 0.50 -4.30 0.75 -5.80 1.45 -8.45 2.80 -16 5.55 -31.25 1.70 -9.35 3.25 -18.35 3.50 -20 0.65 -4.55 4.30 -25.65 6.25 -36.30 0.95 -5.25 1.75 -10.15 1.75 -11 l0 -1.45 -8 0 c-6 0 -8.05 0.15 -8.20 0.65 -0.10 0.30 -0.40 1.75 -0.65 3.20 -0.55 2.95 -0.85 2.70 4.45 3.40 2.70 0.35 3.60 1.20 3.25 3.10 -0.15 0.80 -1.20 6.80 -2.30 13.35 -1.15 6.60 -2.15 12.05 -2.25 12.15 -0.10 0.15 -1.50 -0.15 -3.10 -0.60 -2 -0.60 -5.70 -0.95 -11.50 -1.10 -9.70 -0.30 -14.05 0.30 -20.70 2.90 -5.05 1.95 -8.45 4.30 -13.50 9.40 -8.85 8.95 -12.95 19.25 -14.50 36.45 -1.85 20.20 5.35 32.05 20.90 34.40 4.70 0.65 8.30 0.55 13.85 -0.60z m84.75 -0.70 c2.35 -0.55 6.15 -1.85 8.50 -2.85 4.50 -1.95 10 -4.95 10 -5.50 0 -0.70 -5.65 -16.45 -6.05 -16.85 -0.25 -0.30 -2.15 0.40 -4.80 1.80 -7.25 3.80 -13.35 4.95 -18.55 3.45 -2.80 -0.80 -5.75 -3.75 -6.80 -6.80 -1.20 -3.65 -1.10 -15.15 0.20 -20.60 1.90 -7.95 6.05 -13.90 11.40 -16.45 2.45 -1.15 3.25 -1.30 7.15 -1.10 6.10 0.20 6.20 0.35 5.15 6.60 -0.45 2.65 -0.70 4.95 -0.55 5.10 0.50 0.55 17.85 -0.60 18.45 -1.20 0.30 -0.30 0.95 -3 1.45 -5.95 1.50 -9.10 2.95 -17.35 3.20 -18 0.50 -1.45 -6 -4.30 -13.75 -5.95 -3.30 -0.70 -6.25 -0.90 -13 -0.90 -8 0.05 -9.15 0.15 -13.25 1.40 -9.45 2.85 -15.05 6 -20.65 11.70 -3.65 3.65 -8.15 10.30 -9.85 14.50 -2 5 -3.65 11.65 -4.30 17.35 -0.70 6.55 -0.30 16.25 0.85 20.45 3 11.15 10.90 18.25 22.95 20.60 5 1 16.70 0.55 22.25 -0.80z"/>
        <path d="M50.75 149.80 c-4.90 -1.55 -7.90 -4.35 -9.80 -9.10 -1 -2.55 -1.20 -4.05 -1.35 -11.15 -0.20 -9.45 0.60 -15.55 3 -22.90 3.55 -10.75 9.75 -18.50 18.15 -22.60 7.35 -3.60 18.85 -4.10 28 -1.20 3.80 1.20 3.75 1 2.65 6.80 -1.05 5.60 -4.20 24 -4.90 28.35 -1.80 11.40 -2.75 14.75 -5.50 19 -2.20 3.45 -7.50 8.25 -11.10 10.05 -6.05 3.05 -14.40 4.25 -19.15 2.75z"/>
    </g>
</svg>
