<svg xmlns="http://www.w3.org/2000/svg" version="1.2" baseProfile="tiny-ps" width="95" height="48" viewBox="0 0 316 159"
     preserveAspectRatio="xMidYMid meet" fill="none">
    <g fill="#334155">
        <path d="M297.75 148.05 c-3.15 -1.90 -8.10 -8.35 -11.10 -14.30 -2.15 -4.25 -5 -13.35 -6 -19.10 -1.10 -6.35 -1.10 -22.45 0 -28.65 0.40 -2.35 0.70 -4.30 0.60 -4.40 -0.20 -0.25 -33.25 33.45 -36.50 37.30 -1.95 2.25 -4.05 4.25 -4.70 4.45 -1 0.25 -1.80 -0.30 -4.85 -3.45 -3.50 -3.55 -3.70 -3.90 -3.70 -6 0 -1.45 0.85 -4.65 2.30 -8.65 1.25 -3.45 2.20 -6.40 2.10 -6.50 -0.10 -0.10 -3.20 2.80 -6.95 6.45 -15.95 15.55 -26.90 21.70 -41.60 23.35 -10.95 1.20 -19.90 -0.90 -27.10 -6.45 l-2.50 -1.90 -4.25 2.70 c-10.60 6.65 -20.75 9.95 -32.50 10.45 -10.20 0.45 -17.30 -0.75 -24.90 -4.20 -2.75 -1.20 -7.30 -3.95 -8.65 -5.20 -0.40 -0.40 -1.30 -1.20 -2 -1.80 l-1.25 -1.15 -2.05 1 c-4.60 2.20 -11.80 5.25 -18.90 8 -14.85 5.70 -43.25 14.50 -47.05 14.60 -2.80 0.05 -5 -1.35 -5.95 -3.75 -1 -2.50 -0.65 -4.25 1.25 -6.20 1.30 -1.30 2.65 -1.80 9.85 -3.60 19.30 -4.80 36.10 -10.80 52.80 -18.80 3.40 -1.65 3.90 -2.05 3.65 -2.95 -2.35 -8 -1.25 -17.90 2.80 -26.05 4.35 -8.65 12.90 -17 20.35 -19.80 4.30 -1.60 10.05 -1.80 14 -0.45 5.50 1.85 9.50 5.25 11.60 9.90 2.30 4.90 1.15 13.35 -2.55 19.10 -2.85 4.50 -11.55 12.05 -20.90 18.25 -2 1.35 -3.55 2.65 -3.45 2.95 0.30 0.85 5.70 3.30 9.55 4.30 11.25 2.85 21.80 1.25 32.80 -5 2.45 -1.40 7.60 -4.45 7.85 -4.70 0.05 -0.05 -0.20 -1.20 -0.60 -2.55 -3 -9.90 0.15 -24.25 7.45 -34 7.55 -10.15 17.75 -16 27.80 -15.95 5.50 0.05 9 1.40 12.70 4.75 6.75 6.20 7.95 15.50 3.20 25.05 -4.05 8.10 -9.80 13.75 -22.50 22.20 -5.90 3.90 -5.95 3.95 -1.65 5.50 3.65 1.35 11.25 1.25 16.50 -0.25 16.60 -4.65 31.55 -18.15 52.65 -47.55 6.65 -9.25 8.10 -11 9.80 -12.05 2.15 -1.30 2.95 -1.20 6.55 0.80 3.65 2.05 4 2.45 4.50 4.60 0.25 1.35 -0.60 3.70 -5.50 15 -3.25 7.35 -5.95 13.65 -6.10 13.90 -0.15 0.30 3 -2.75 6.95 -6.75 8.95 -9.05 16.45 -16.20 21.65 -20.75 10.45 -9.15 13.25 -11.25 14.95 -11.25 0.60 0 2.60 1.45 4.55 3.20 l3.50 3.20 -0.05 2.70 c-0.05 1.75 -0.50 3.50 -1.30 5.15 -3.10 6.10 -6.65 17.25 -8.20 25.75 -1.35 7.25 -1.25 22.15 0.20 28.65 1.50 6.85 3.65 13 6.60 18.80 2.70 5.40 3.05 7.55 1.70 10.10 -0.75 1.50 -3.25 2.95 -5.05 2.95 -0.50 0 -1.55 -0.40 -2.40 -0.95z m-199.80 -49.70 c5.30 -3.75 12.55 -10.90 14 -13.70 2.20 -4.40 0.65 -8.15 -3.35 -8.15 -4.10 0 -10.80 4.85 -13.95 10.10 -2.50 4.15 -4.35 12.50 -3.35 15.10 0.40 1 0.90 0.70 6.65 -3.35z m70.85 -2.25 c9.65 -6.65 15.50 -12.10 17.65 -16.35 2.85 -5.70 0.35 -10.15 -5.05 -9 -4.75 1 -11.55 7.10 -14.40 12.85 -1.85 3.80 -3.30 10.50 -2.80 13.10 0.20 1 0.50 1.80 0.75 1.80 0.20 0 1.95 -1.10 3.85 -2.40z"/>
        <path d="M114.80 49.85 c-1.95 -1.95 -1.65 -3.25 1.55 -7.15 6.55 -7.95 14.50 -15.15 20.20 -18.20 3.05 -1.60 4.25 -1.80 6.05 -0.95 1.60 0.70 4.90 5.30 4.90 6.80 0 4.50 -5.50 8.95 -19.65 15.90 -10.30 5.10 -11.30 5.35 -13.05 3.60z"/>
        <path d="M192.30 41.35 c-0.70 -0.70 -1.30 -1.85 -1.30 -2.45 0 -5.85 21.50 -28.15 28.15 -29.25 2.30 -0.35 4.40 0.85 6.85 3.90 2.50 3.20 2.65 5.25 0.55 8.55 -2.75 4.35 -13.85 12.45 -23.70 17.35 -6.55 3.30 -8.75 3.70 -10.55 1.90z"/>
    </g>
</svg>
