<svg xmlns="http://www.w3.org/2000/svg" version="1.2" baseProfile="tiny-ps" width="77px" height="48px"
     viewBox="0 0 800 500" preserveAspectRatio="xMidYMid meet" fill="none">
    <g fill="#334155">
        <path d="M104.5 479.6 c-10.2 -3.3 -19 -10 -24.2 -18.7 -6.7 -11.3 -6.3 2.7 -6.3 -210.4 0 -213.1 -0.4 -199.1 6.3 -210.4 4.2 -6.9 10.6 -12.6 18.7 -16.5 l6.5 -3.1 295.5 0 295.5 0 6.5 3.2 c12.4 6.1 21.8 18.6 24 31.8 0.6 3.8 1 76.3 1 195.5 0 206.4 0.2 197.3 -5.6 208.1 -3.9 7.1 -11.7 14.4 -19.3 18.2 l-6.6 3.2 -294 0.2 c-235.5 0.1 -294.8 -0.1 -298 -1.1z m84.5 -70.1 c34.3 -5.5 55.2 -17.5 62.1 -35.5 2.5 -6.5 2.4 -12.6 -0.1 -19.4 -3.9 -10.4 -11.3 -17.2 -23.2 -21.3 -9.4 -3.3 -16.4 -3.2 -35.3 0.2 -18.2 3.3 -26.8 3.1 -29.6 -0.4 -2.3 -2.8 -2.6 -12.2 -0.6 -16.1 1.1 -2.3 2 -2.6 9.4 -3.2 23.2 -1.9 42 -12.3 50.1 -27.6 4.4 -8.5 5.4 -14.4 3.7 -22.7 -2.6 -12.2 -10.2 -20.7 -22.5 -25.1 -4.6 -1.7 -5 -2 -5 -5.1 0 -2.6 0.5 -3.4 2.3 -3.7 14.7 -3.2 29.7 -8.1 29.7 -9.6 0 -0.7 -7.4 -15.2 -8.5 -16.8 -0.2 -0.2 -4.2 2.4 -9.1 5.7 -10.1 6.8 -21 11.5 -33.1 14.2 -4.6 1.1 -12.2 2.8 -16.9 3.9 -21.2 4.8 -36.3 17.1 -41.4 33.8 -3.1 10 -2.2 18.9 3 29.7 3.5 7.3 13.9 15.7 23.3 18.8 2.5 0.9 2.3 6.9 -0.4 9.3 -2.8 2.5 -6.8 9.5 -8 13.9 -2.3 8.3 5.3 19.3 15.8 22.9 6.5 2.2 13.7 2 29.9 -0.9 22 -3.9 30.7 -3.2 36.4 2.9 2.1 2.3 2.5 3.9 2.8 10.4 0.3 6.8 0.1 8.1 -2 11.2 -5.3 7.8 -25.3 13.4 -45.5 12.8 -10.8 -0.3 -11.3 -0.4 -14.2 -3.2 -1.7 -1.6 -3.6 -4.4 -4.2 -6.3 -0.8 -2.4 -1.6 -3.2 -2.7 -2.9 -1 0.2 -6.5 1.2 -12.4 2.2 l-10.6 1.8 1.9 4.8 c5 12.6 12.8 19 27.4 22.1 4.6 1 18.7 0.6 27.5 -0.8z m137.8 -76.1 c14.1 -2.9 30.2 -11.3 38.4 -20.1 l2.8 -2.9 -5.9 -5.8 -5.8 -5.7 -6.6 4.9 c-9.3 7.1 -17.4 9.6 -30.7 9.7 -9 0 -11.2 -0.3 -15.3 -2.3 -2.6 -1.3 -6.3 -4.3 -8.2 -6.7 -4.4 -5.3 -8.5 -15.2 -8.5 -20.4 0 -3.5 0.3 -4 2.8 -4.5 1.5 -0.3 18.2 -3.3 37.2 -6.6 19 -3.3 35.7 -6.3 37.3 -6.6 2.3 -0.5 2.7 -1.1 2.7 -3.9 0 -6.1 -4.8 -22.4 -9.1 -30.7 -7.9 -15.4 -21.7 -26.5 -36.7 -29.7 -17.6 -3.7 -38.6 3.1 -51.6 16.9 -11.2 12 -16.1 25.3 -15.9 44 0.1 25.1 10.6 48.8 26.7 60.8 13.8 10.2 28.7 13.3 46.4 9.6z m98.7 -21.4 c6.6 -1.2 12.2 -2.3 12.4 -2.5 0.2 -0.2 -2.9 -18.6 -6.8 -40.8 -3.9 -22.2 -7.1 -42.7 -7.1 -45.5 0 -8.9 7.1 -20.2 15.2 -24.3 5.8 -2.9 16.3 -3.5 20.8 -1.2 6.3 3.2 7.2 6.7 16.1 57.4 l8.2 46.6 14.1 -2.5 c7.8 -1.3 14.2 -2.5 14.2 -2.6 0.5 -0.3 -16.5 -93.8 -17.6 -97.2 -3.5 -10.9 -9.7 -18.4 -18.5 -22.6 -16 -7.6 -38.6 1.3 -50.2 19.8 -2.5 4 -3.1 4.4 -6.2 4.2 -3.3 -0.3 -3.6 -0.6 -5.5 -6.5 -1.2 -3.4 -2.4 -6.5 -2.8 -6.8 -0.7 -0.7 -20.9 2.3 -22.6 3.4 -0.6 0.4 3 23.4 9.9 62.1 6 33.8 10.9 61.6 10.9 61.8 0 0.2 0.8 0.1 1.8 -0.2 0.9 -0.3 7.1 -1.5 13.7 -2.6z m172 -26.7 c6 -1.5 16.7 -6.6 21.4 -10.2 l2.5 -1.9 -4.5 -5.7 c-2.4 -3.1 -4.9 -6.3 -5.5 -7.1 -1 -1.3 -1.7 -1.2 -5 0.8 -3.2 1.9 -5.4 2.3 -12.1 2.3 -7.2 0 -8.4 -0.3 -10.7 -2.4 -1.4 -1.3 -3.2 -4.5 -4 -7 -3.4 -10.5 -14 -75.8 -12.3 -76.2 0.1 0 5.8 -1 12.7 -2.3 l12.5 -2.2 -0.2 -8.8 c0 -4.8 -0.3 -9 -0.6 -9.2 -0.2 -0.3 -5.5 0.4 -11.7 1.6 -6.3 1.1 -12.8 2 -14.5 2 l-3.2 0 -1.7 -9.2 c-0.9 -5.1 -2.2 -12.1 -2.8 -15.6 -0.7 -3.6 -1.6 -6.1 -2.2 -5.9 -0.6 0.2 -6.9 2.1 -13.9 4.3 -12.5 3.7 -12.8 3.9 -12.3 6.4 1.9 9.2 3.8 23.9 3.4 25.2 -0.4 1 -3.4 1.9 -9.5 2.8 l-8.8 1.2 1.5 9 1.5 9 5.5 -0.8 c3 -0.4 7.5 -0.8 9.9 -0.8 l4.4 -0.1 6.3 35.1 c3.4 19.3 6.7 36.9 7.4 39 3.8 11.7 12.5 22.6 20.7 26 8.2 3.5 14.1 3.6 25.8 0.7z m73.9 -19 c9 -6.3 11 -16.5 4.9 -24.1 -3.7 -4.6 -9.8 -8.2 -14.1 -8.2 -7.3 0 -16.3 7.9 -17.8 15.5 -1.2 6.5 4 14.9 11.7 18.8 4.5 2.3 10.2 1.6 15.3 -2z m-16.8 -87.2 c7.7 -3.5 13.1 -12.8 11.3 -19.4 -2 -7.3 -11.2 -14.7 -18.2 -14.7 -6.6 0 -15.3 7.7 -17.2 15.3 -2 7.8 9 20.7 17.5 20.7 1.4 0 4.3 -0.9 6.6 -1.9z"/>
        <path d="M164 295.9 c-9.4 -2.8 -14.9 -11.7 -15.7 -25.1 -0.7 -11 0.8 -16.1 6.1 -21.4 5.2 -5.3 10.2 -6.7 22 -6.2 11.2 0.4 14.6 2.3 18.5 10.7 2.4 5.1 2.6 6.7 2.6 17.7 0 11.4 -0.1 12.3 -2.7 16.1 -3.7 5.6 -9.8 8.4 -19.6 8.9 -4.2 0.2 -9.3 -0.1 -11.2 -0.7z"/>
        <path d="M282.3 262.4 c-0.3 -0.8 -0.3 -6.9 -0.1 -13.4 0.4 -10.3 0.9 -12.6 3.3 -17.5 3.4 -7.1 8 -10.2 16.8 -11.6 8.3 -1.3 16.7 0.1 21.3 3.6 6.1 4.7 11.1 15.4 12.1 26 l0.6 6.1 -24 4.2 c-26.6 4.7 -29.1 4.9 -30 2.6z"/>
    </g>
    <g fill="#393937">
    </g>
    <g fill="#686766">
    </g>
    <g fill="#a6a6a5">
    </g>
    <g fill="#dfdfdf">
        <path d="M176 411.8 c0 -2.5 0.3 -2.6 8.5 -3.3 8.7 -0.7 10.5 -0.4 10.5 2 0 1.6 -2.5 2.3 -11.8 3.1 l-7.2 0.7 0 -2.5z"/>
        <path d="M153.8 359.3 c-1 -0.2 -1.8 -1 -1.8 -1.8 0 -1.6 2.2 -2.5 6.1 -2.5 2.4 0 2.9 0.4 2.9 2.5 0 2.1 -0.5 2.5 -2.7 2.4 -1.6 -0.1 -3.6 -0.3 -4.5 -0.6z"/>
        <path d="M168 357.7 c0 -2.4 0.3 -2.6 7.4 -3.2 7.7 -0.7 9.6 -0.3 9.6 2 0 1.5 -2.7 2.3 -11 3.2 -5.9 0.6 -6 0.6 -6 -2z"/>
        <path d="M192 353.9 c0 -2.8 0.2 -2.9 4.5 -2.9 3.2 0 4.7 0.5 5.2 1.5 0.7 2.1 0.4 2.4 -5 3.4 l-4.7 0.8 0 -2.8z"/>
        <path d="M300.8 337.3 c-1 -0.2 -1.8 -1 -1.8 -1.8 0 -1.4 3 -2.5 7.3 -2.5 2.2 0 2.7 0.4 2.7 2.5 0 2.2 -0.4 2.5 -3.2 2.4 -1.8 -0.1 -4.1 -0.3 -5 -0.6z"/>
        <path d="M315 335.5 c0 -2.2 0.4 -2.5 3.8 -2.5 5.1 0 8.2 1 8.2 2.5 0 1.5 -3.1 2.5 -8.2 2.5 -3.4 0 -3.8 -0.3 -3.8 -2.5z"/>
        <path d="M163 316.5 l0 -4.5 7.3 0 c8.4 0 11.7 0.7 11.7 2.5 0 1.6 -3.2 2.5 -9.7 2.5 -4.2 0 -5.5 0.4 -6.5 2 -2 3.1 -2.8 2.4 -2.8 -2.5z"/>
        <path d="M410 316 c0 -1.1 0.7 -2 1.5 -2 0.8 0 1.5 -0.5 1.5 -1.1 0 -0.6 1.9 -0.9 4.7 -0.7 3.5 0.2 4.9 0.7 5.1 2 0.2 1.2 -0.9 1.9 -4.8 2.7 -7 1.5 -8 1.4 -8 -0.9z"/>
        <path d="M427 313.1 c0 -1.2 0.6 -2.1 1.5 -2.1 0.8 0 1.5 -0.4 1.5 -1 0 -0.5 1.1 -1 2.4 -1 3.7 0 5.6 -1 5.6 -3.1 0 -2.7 2.6 -2.4 3.4 0.4 1.4 5.3 0.8 6.4 -3.6 7.1 -2.4 0.4 -5.8 0.9 -7.5 1.2 -2.9 0.5 -3.3 0.3 -3.3 -1.5z"/>
        <path d="M484 303.1 c0 -1.2 0.6 -2.1 1.5 -2.1 0.8 0 1.5 -0.5 1.5 -1.1 0 -0.6 1.9 -0.9 4.7 -0.7 3.5 0.2 4.9 0.7 5.1 2 0.3 1.6 -0.3 1.9 -9 3.4 -3.4 0.6 -3.8 0.4 -3.8 -1.5z"/>
        <path d="M501 300.1 c0 -1.2 0.6 -2.1 1.5 -2.1 0.8 0 1.5 -0.5 1.5 -1.1 0 -0.6 1.9 -0.9 4.7 -0.7 3.5 0.2 4.9 0.7 5.1 2 0.3 1.6 -0.3 1.9 -9 3.4 -3.4 0.6 -3.8 0.4 -3.8 -1.5z"/>
        <path d="M286.6 287.8 c-0.3 -1.3 -0.6 -4 -0.6 -6 l0 -3.6 6.5 -0.7 c3.5 -0.4 7.1 -0.5 8 -0.1 2.6 0.9 1.7 3.4 -1.5 4 -10.3 2 -9.7 1.6 -8 6 0.9 2.3 0.7 2.6 -1.4 2.6 -1.6 0 -2.6 -0.7 -3 -2.2z"/>
        <path d="M571.3 288.8 c-5.4 -1.8 -4.2 -3.8 2.2 -3.8 5.2 0 5.5 0.1 5.5 2.5 0 2.8 -1.9 3.1 -7.7 1.3z"/>
        <path d="M306 278.1 c0 -1.2 0.6 -2.1 1.5 -2.1 0.8 0 1.5 -0.5 1.5 -1.1 0 -0.6 1.9 -0.9 4.7 -0.7 3.5 0.2 4.9 0.7 5.1 2 0.3 1.6 -0.3 1.9 -9 3.4 -3.4 0.6 -3.8 0.4 -3.8 -1.5z"/>
        <path d="M340 272.1 c0 -1.2 0.6 -2.1 1.5 -2.1 0.8 0 1.5 -0.5 1.5 -1.1 0 -0.6 1.9 -0.9 4.7 -0.7 3.5 0.2 4.9 0.7 5.1 2 0.3 1.6 -0.3 1.9 -9 3.4 -3.4 0.6 -3.8 0.4 -3.8 -1.5z"/>
        <path d="M357 269.1 c0 -1.2 0.6 -2.1 1.5 -2.1 0.8 0 1.5 -0.5 1.5 -1.1 0 -0.6 1.9 -0.9 4.7 -0.7 3.5 0.2 4.9 0.7 5.1 2 0.3 1.6 -0.3 1.9 -9 3.4 -3.4 0.6 -3.8 0.4 -3.8 -1.5z"/>
        <path d="M182.5 247 c-1.1 -0.5 -4.4 -0.9 -7.2 -0.9 -4.5 -0.1 -5.3 -0.4 -5.3 -2 0 -1.3 1 -2 3.1 -2.5 4.6 -0.9 7.9 -0.7 7.9 0.4 0 0.6 0.9 1 2 1 1.5 0 2 0.7 2 2.5 0 1.4 -0.1 2.5 -0.2 2.4 -0.2 0 -1.2 -0.4 -2.3 -0.9z"/>
        <path d="M514.6 189.3 c-1.3 -3.3 -0.6 -6.3 1.4 -6.3 1.1 0 2 0.5 2 1 0 0.6 1.1 1 2.5 1 1.4 0 2.8 0.7 3.2 1.5 0.7 2.1 0.5 2.2 -4.4 3.3 -3.4 0.8 -4.3 0.7 -4.7 -0.5z"/>
        <path d="M648 181.5 c0 -2.4 0.3 -2.5 6 -2.5 3.5 0 6 0.4 6 1.1 0 1.3 -6.2 3.9 -9.5 3.9 -2 0 -2.5 -0.5 -2.5 -2.5z"/>
        <path d="M579 177.1 c0 -1.2 0.6 -2.1 1.5 -2.1 0.8 0 1.5 -0.5 1.5 -1.1 0 -0.6 1.9 -0.9 4.7 -0.7 3.5 0.2 4.9 0.7 5.1 2 0.3 1.6 -0.3 1.9 -9 3.4 -3.4 0.6 -3.8 0.4 -3.8 -1.5z"/>
    </g>
    <g fill="#fefefe">
        <path d="M155.5 412.6 c-11 -2.7 -18.4 -8.5 -22.8 -17.8 -3.4 -7.1 -4.9 -13.8 -3.4 -14.3 0.7 -0.2 6.8 -1.3 13.7 -2.5 6.9 -1.2 13.4 -2.4 14.6 -2.6 1.7 -0.4 2.3 0.2 3.2 3.3 0.6 2.1 2.5 5.2 4.2 6.8 2.7 2.6 3.8 2.9 11.2 3.3 10.3 0.5 26.9 -2.7 34.8 -6.6 3.2 -1.6 6.4 -4.2 7.8 -6.2 4.3 -6.3 1.8 -15.4 -5.3 -19.3 -3.3 -1.7 -17.7 -2.7 -19.2 -1.2 -1.6 1.6 -9.6 2.8 -13.3 2 -2 -0.4 -3 -0.3 -3 0.5 0 0.9 -1.1 1 -3.5 0.6 -2.2 -0.4 -3.5 -0.3 -3.5 0.4 0 0.6 -2.6 1 -6.5 1 -3.6 0 -6.5 -0.4 -6.5 -0.9 0 -0.5 -0.9 -0.7 -1.9 -0.4 -3.2 0.8 -8.6 -1.5 -13.4 -5.8 -10.3 -9 -10.1 -24.4 0.4 -36.4 2.8 -3.2 2.9 -3.5 1.2 -4.1 -9.5 -3.2 -19.8 -11.6 -23.3 -18.9 -6.6 -13.7 -6.6 -30.5 0 -43.5 2.8 -5.4 9.4 -12.4 15.7 -16.6 7.9 -5.2 17.8 -8.9 30.9 -11.3 19.7 -3.7 32.5 -9.1 45.9 -19.1 4.4 -3.3 8.4 -5.9 8.8 -5.7 0.4 0.1 3.7 5.7 7.2 12.4 l6.5 12.2 -5.3 2.4 c-5.2 2.5 -16.2 6 -22.7 7.2 -7.5 1.4 -7.5 1.6 -0.8 4.5 12.9 5.4 18.8 12.4 21.5 25.7 4.9 23.8 -10.4 44.7 -38.4 52.4 -5.3 1.5 -9.2 2 -12.5 1.6 -2.8 -0.4 -4.8 -0.2 -4.8 0.3 0 1.4 -5.8 1.2 -6.2 -0.2 -0.2 -0.6 -1 1.5 -1.8 4.7 -1.2 5 -1.2 6.1 0.1 8.4 2.5 4.5 6.6 4.7 24.5 1.5 20 -3.5 30.2 -3.7 40.2 -0.5 17 5.5 26.2 17.6 26.2 34.6 0 16.3 -8.9 28.4 -27.7 37.6 -10.3 5.1 -30.1 10.3 -36 9.5 -2.8 -0.4 -4.3 -0.2 -4.3 0.6 0 0.7 -1.5 0.9 -4.5 0.5 -2.7 -0.4 -4.5 -0.3 -4.5 0.3 0 1.4 -17.4 1.1 -23.5 -0.4z m29.3 -121.8 c2.6 -1.2 5.4 -3.7 7 -6.1 2.4 -3.7 2.7 -4.9 2.7 -13.1 0 -7.4 -0.5 -10.1 -2.5 -14.5 -2.4 -5.5 -8.5 -11.1 -12.2 -11.1 -1 0 -1.8 -0.5 -1.8 -1.1 0 -0.5 -0.5 -0.7 -1.1 -0.4 -0.5 0.4 -2.5 0.9 -4.2 1.2 -11.2 1.6 -18.5 7 -20.7 15.3 -2.5 9.2 1.7 23.4 8.3 28.4 6.5 5 16 5.5 24.5 1.4z"/>
        <path d="M306 337.2 c0 -0.4 -1.5 -0.6 -3.3 -0.4 -4.9 0.6 -15.3 -3.3 -23 -8.5 -12.6 -8.5 -21.4 -22.2 -26.5 -41.2 -3.3 -12.6 -3.7 -34.8 -0.9 -45.1 7.7 -27.3 29.8 -44 58.3 -44 16.8 0 28 4.4 38.9 15.4 11.5 11.5 18.9 28.8 21 49 l0.7 6.9 -4.1 -0.7 c-2.3 -0.3 -4.1 -0.2 -4.1 0.3 0 1.4 -9.7 3.4 -13.4 2.7 -2 -0.4 -3.6 -0.2 -3.8 0.4 -0.5 1.5 -25.7 6.2 -30 5.5 -2.1 -0.3 -3.8 -0.1 -3.8 0.4 0 1.4 -10.6 3.4 -14 2.6 -2 -0.4 -3 -0.3 -3 0.5 0 0.8 -1 0.9 -3 0.5 -3.8 -0.8 -3.8 -0.2 0 8.7 6.2 14.6 13.8 20.3 27 20.2 12.6 -0.1 23.2 -4.6 33.3 -14.2 l3.7 -3.6 9 8.9 9 8.9 -4.3 4.4 c-12.6 13.1 -34.6 23.3 -46.9 21.8 -2.8 -0.3 -4.8 -0.1 -4.8 0.4 0 0.6 -2.7 1 -6 1 -3.3 0 -6 -0.4 -6 -0.8z m5.3 -80.8 l21.7 -3.8 -0.6 -3.5 c-1.7 -9.3 -6.6 -18.6 -11.8 -22.6 -4 -3 -10.4 -4.3 -16.9 -3.4 -11.4 1.7 -17.4 10.1 -18.4 25.7 -0.7 10.1 -0.1 12.6 2.4 11.8 1 -0.2 11.6 -2.1 23.6 -4.2z"/>
        <path d="M407 318.3 c0 -0.4 -5.2 -29.8 -11.4 -65.3 -6.3 -35.5 -11.3 -64.6 -11.1 -64.8 0.4 -0.4 26.7 -5.2 28.7 -5.2 1.1 0 2.3 2 3.9 6.7 1.2 3.8 2.4 7.2 2.6 7.6 0.3 0.5 2 -1.4 3.9 -4.2 9.9 -14.6 23.7 -22.2 40.9 -22.4 6.7 -0.1 9 0.4 14.2 2.7 9.9 4.5 16.2 12.4 19.7 24.6 1.2 4.5 16.7 90.2 17.8 99 0.3 2.4 0.1 2.5 -4.4 2.3 -2.7 -0.1 -4.8 0.2 -4.8 0.7 0 1.4 -9.9 3.2 -13.5 2.6 -2 -0.4 -3.5 -0.3 -3.5 0.2 0 1.5 -8.1 3.3 -8.5 1.9 -0.3 -0.7 -4.1 -21.9 -8.5 -47.1 -4.5 -25.9 -8.9 -47.8 -9.9 -50.2 -2.5 -5.5 -6.2 -7.9 -12.1 -7.8 -8.7 0.3 -16.3 6.1 -21.5 16.4 -1.4 2.7 -2.5 5.9 -2.5 7.2 0 1.2 3.1 20 6.9 41.7 8.3 47.7 8.1 46.1 6.4 46.1 -0.7 0 -1.3 0.5 -1.3 1.1 0 0.7 -1.1 0.8 -3 0.4 -1.7 -0.4 -3 -0.2 -3 0.3 0 1.5 -9.6 3.5 -13.5 2.8 -2 -0.4 -3.5 -0.3 -3.5 0.2 0 0.6 -1.2 1.3 -2.7 1.6 -1.6 0.4 -3.6 0.9 -4.5 1.2 -1 0.3 -1.8 0.2 -1.8 -0.3z"/>
        <path d="M578.3 290.4 c-1.3 -0.3 -2.3 -1 -2.3 -1.5 0 -0.6 -0.4 -0.7 -1 -0.4 -2.2 1.4 -9.1 -1.8 -14.5 -6.7 -5.5 -5 -9.8 -12 -12.5 -20.2 -0.7 -2.1 -4 -19.7 -7.5 -39 -5.7 -32.2 -6.3 -35.1 -8.1 -34.8 -1 0.2 -4.9 0.4 -8.6 0.5 -3.8 0.1 -6.8 0.5 -6.8 1 0 0.4 -0.4 0.7 -0.9 0.7 -0.9 0 -1.1 -0.5 -3.5 -12.5 -2.6 -12.8 -3 -12 7.4 -13.5 5 -0.7 9.2 -1.6 9.4 -1.9 0.3 -0.4 -0.7 -6.7 -2 -14.1 -1.3 -7.4 -2 -13.7 -1.6 -14.1 0.4 -0.4 8 -2.9 17 -5.7 10.8 -3.3 16.5 -4.6 16.7 -3.8 0.2 0.6 1.6 7.9 3 16.1 1.5 8.3 2.8 15.1 2.9 15.2 0.1 0.2 6.7 -0.9 14.5 -2.3 7.9 -1.4 14.6 -2.3 14.8 -2 0.3 0.3 0.6 6.1 0.7 12.8 l0.1 12.3 -5 -0.1 c-2.7 0 -5.3 0.3 -5.6 0.8 -0.3 0.4 -3.6 1.5 -7.3 2.2 -3.7 0.8 -7 1.7 -7.3 2 -0.8 0.7 10.6 65.1 12.4 70.1 3.7 10.5 13.4 12.3 24.1 4.5 l4.1 -3 8.1 10.3 8.1 10.2 -3.6 3.2 c-5 4.3 -15.8 9.8 -23 11.7 -6.6 1.7 -18.6 2.7 -22.2 2z"/>
        <path d="M653.2 271.4 c-8.5 -4.3 -12.6 -11.5 -12 -21.1 0.3 -5 1 -7.1 3.4 -10.5 8.3 -11.9 25 -12.4 34.3 -1.1 7.9 9.6 5.6 24 -5 31 -5.3 3.5 -15.5 4.3 -20.7 1.7z"/>
        <path d="M639.5 182.4 c-15.7 -8.1 -16.8 -29.3 -1.9 -38 16.1 -9.4 36.4 6.1 31.4 24 -2.3 8.2 -10.4 15.3 -15.8 13.9 -1.3 -0.3 -2.2 -0.1 -2.2 0.6 0 1.7 -8 1.3 -11.5 -0.5z"/>
    </g>
</svg>
