<svg version="1.2" baseProfile="tiny-ps" xmlns="http://www.w3.org/2000/svg" width="72" height="52" viewBox="0 0 493 366"
     fill="none" preserveAspectRatio="xMidYMid meet">
    <g fill="#334155">
        <path d="M285.7 362.3 c0.9 -1.6 1.8 -2.9 1.9 -3.1 0 -0.1 0.1 1.1 0 2.8 -0.1 2.2 -0.6 3 -1.9 3 -1.7 0 -1.7 -0.1 0 -2.7z"/>
        <path d="M309 363.3 c0 -1 -2.6 -7.6 -5.8 -14.8 -5.2 -11.8 -6.4 -16.5 -4.3 -16.5 0.4 0 2.9 5.1 5.5 11.3 2.7 6.1 6.1 13.6 7.6 16.5 l2.8 5.2 -2.9 0 c-2.1 0 -2.9 -0.5 -2.9 -1.7z"/>
        <path d="M323.5 353.8 c-2.2 -6.1 -4.1 -11.5 -4.3 -12 -0.2 -0.4 0.5 -0.8 1.5 -0.8 1.4 0 2.4 1.8 4.1 7.4 1.3 4 2.9 8.5 3.6 9.8 1 1.9 1.1 3 0.2 4.7 -1.1 1.9 -1.6 0.9 -5.1 -9.1z"/>
        <path d="M339.7 355.2 c-4.9 -13.5 -5.1 -14.2 -3.5 -14.2 0.7 0 2.9 4.4 5.1 10.3 3.9 10.7 4.2 12.2 2.8 13.1 -0.4 0.3 -2.4 -3.8 -4.4 -9.2z"/>
        <path d="M358.5 362.6 c-1.8 -2.7 -1.1 -5.1 2.2 -7.6 1.5 -1.2 1.6 -1.2 0.6 0 -2.1 2.3 -1.5 5.7 1.5 7.9 l2.7 2 -2.7 0.1 c-1.8 0 -3.3 -0.8 -4.3 -2.4z"/>
        <path d="M373.7 364.3 c-0.4 -0.3 -0.7 -5.2 -0.7 -10.8 0 -6.5 -0.4 -10.5 -1.2 -11.3 -0.9 -0.9 -0.9 -1.2 0 -1.2 2.6 0 4 4.6 4.4 14.3 0.3 9.1 -0.3 11.3 -2.5 9z"/>
        <path d="M384 355.1 c0 -5.9 -0.4 -10.2 -1 -10.6 -0.8 -0.5 -0.7 -1.2 0.1 -2.2 2.6 -3 3.9 1.3 3.9 12.4 0 8.5 -0.3 10.3 -1.5 10.3 -1.2 0 -1.5 -1.8 -1.5 -9.9z"/>
        <path d="M402.5 362.6 c-3 -3 -3.9 -6.5 -3.1 -11.1 1.1 -5.6 2.6 -5.1 2.6 0.9 0 4.4 0.5 6 2.5 8.5 1.4 1.6 3.8 3.2 5.3 3.4 2.1 0.3 1.9 0.4 -1.1 0.6 -2.8 0.1 -4.4 -0.5 -6.2 -2.3z"/>
        <path d="M418 355.7 c0 -8.4 -0.2 -9.6 -2.2 -11.4 -1.3 -1.1 -3 -2.3 -3.8 -2.6 -1.2 -0.4 -1.1 -0.6 0.3 -0.6 1 -0.1 2.7 0.4 3.8 1 2 1 2.1 0.8 1.7 -6.5 -0.3 -7.1 0.2 -8.6 2.7 -8.6 0.2 0 0.5 8.6 0.7 19 0.3 17.5 0.2 19 -1.4 19 -1.6 0 -1.8 -1.1 -1.8 -9.3z"/>
        <path d="M429.8 364.3 c-1 -0.2 -1.8 -1.4 -1.8 -2.5 0 -1.2 0.1 -1.9 0.3 -1.7 0.1 0.2 1.1 1.4 2.1 2.7 1.1 1.2 1.7 2.1 1.5 2.1 -0.2 -0.1 -1.2 -0.3 -2.1 -0.6z"/>
        <path d="M443 359.7 c0 -2.5 -0.7 -3 -9.3 -6.6 -5.3 -2.2 -6.3 -3.8 -5.1 -7.9 0.7 -2.4 0.8 -2.5 1.1 -0.6 0.5 2.9 2.8 4.8 8.6 6.9 2.6 1 5.2 2.6 5.7 3.6 1.3 2.3 1.3 5.6 0 6.4 -0.6 0.3 -1 -0.4 -1 -1.8z"/>
        <path d="M358 346.1 c0 -1.1 4.2 -4.3 4.8 -3.7 0.2 0.3 -0.1 1.4 -0.8 2.5 -1.1 2.1 -4 2.9 -4 1.2z"/>
        <path d="M351 343.7 c0 -1.8 0.5 -2.7 1.5 -2.7 1.3 0 1.4 0.4 0.4 2.3 -1.7 3.3 -1.9 3.3 -1.9 0.4z"/>
        <path d="M389.1 342.3 c1.3 -1.4 6.4 -1.8 5.5 -0.4 -0.3 0.5 -1.9 1.1 -3.6 1.3 -2.4 0.4 -2.7 0.2 -1.9 -0.9z"/>
        <path d="M442 342.5 c-1 -1.2 -1 -1.5 0.4 -1.5 0.9 0 1.6 0.7 1.6 1.5 0 0.8 -0.2 1.5 -0.4 1.5 -0.2 0 -0.9 -0.7 -1.6 -1.5z"/>
        <path d="M122.1 317.3 c-6.8 -3.5 -16.5 -12.3 -18.2 -16.5 -0.7 -1.8 -2.7 -5.4 -4.5 -8.1 -1.8 -2.6 -3.6 -5.8 -3.9 -7 -0.9 -3.1 -2.3 -6.5 -5 -11.7 -1.3 -2.5 -6 -13 -10.5 -23.4 -6 -13.9 -8 -19.6 -7.5 -21.4 0.5 -1.9 -0.1 -3.2 -2.1 -5.3 -2.3 -2.4 -2.9 -4.2 -3.5 -10 -0.5 -3.9 -1.5 -8.2 -2.3 -9.5 -0.9 -1.3 -1.6 -3.6 -1.6 -5.2 0 -1.5 -0.4 -3.2 -1 -3.8 -0.5 -0.5 -1.3 -3.9 -1.6 -7.4 -0.4 -3.6 -1.1 -7 -1.6 -7.6 -0.5 -0.7 -0.9 -3.8 -0.9 -7 -0.1 -3.3 -0.5 -6.7 -1.1 -7.7 -0.7 -1.4 -0.5 -2.3 0.6 -3.6 2.1 -2.3 2 -3.4 -0.2 -2.9 -1.7 0.5 -1.8 -0.7 -1.8 -20.1 0.1 -11.3 0.5 -21.2 0.9 -21.9 0.5 -0.7 1 -3.9 1.2 -7 0.5 -7.4 1.9 -15.5 3.8 -21.2 1.3 -4.2 1.7 -4.5 5.6 -5.1 3 -0.4 5.2 -1.6 7.9 -4.2 2.1 -2 4.2 -3.7 4.6 -3.7 1.9 0 7.7 5.2 9.3 8.3 0.9 1.8 3.6 5.7 6.1 8.7 5.4 6.7 9.2 14.3 9.2 18.8 0 1.9 0.9 4.5 2 5.9 1.1 1.4 2 3.5 2 4.7 0 2.3 2 6 2 3.9 0 -2.5 1.9 -1.2 2.5 1.7 1.5 6.8 2.5 2.3 2.5 -10.7 0 -31 -0.1 -36.7 -1 -38.2 -0.5 -1 -0.3 -4.2 0.5 -8.1 0.8 -3.6 1.4 -8.8 1.5 -11.6 0 -6.2 4.4 -28.8 7.1 -36.3 1 -3.1 1.9 -6.3 1.9 -7.2 0 -0.9 0.7 -2.3 1.6 -3 0.9 -0.8 2.7 -3.1 4 -5.1 2.2 -3.5 2.8 -3.8 7.1 -3.8 2.6 0 6.6 -0.7 8.9 -1.6 5.8 -2.2 11.8 -0.6 14.5 4.1 1.1 1.8 3.1 4.1 4.4 4.9 1.4 0.9 3.4 3.3 4.5 5.4 1.1 2 2.4 4.4 2.8 5.2 3 5.3 4.2 8.4 4.2 10.5 0 1.2 0.7 4.2 1.5 6.6 1.6 4.5 3.5 14.7 4 20.9 0.1 1.9 0.9 5.8 1.7 8.5 0.8 2.8 1.3 5.6 1.1 6.3 -0.3 0.7 0.2 2.3 1 3.5 2 3.1 3 8.2 2.8 15.1 -0.1 3.2 0.4 6.5 1 7.2 0.6 0.8 0.9 2.6 0.6 4.1 -0.3 1.6 0.2 4.2 1.3 6.3 1 1.9 2.1 5.1 2.5 7 0.4 1.9 1.4 4.3 2.2 5.2 1.3 1.4 1.3 2.1 0.3 3.3 -1 1.2 -0.9 2.3 0.4 5.5 0.9 2.2 1.6 5.4 1.6 7 0 1.6 0.5 3.2 1 3.5 0.6 0.3 0.7 1.7 0.4 3 -0.3 1.3 0 3.4 0.8 4.7 1.1 2 1.5 5.5 2.1 19.1 0 2 0.5 3.7 1 3.7 0.5 0 0.6 1.4 0.2 3 -0.5 2.3 -0.3 3 0.8 3 1.6 0 2.3 2.5 3.6 12.5 0.5 3.3 1.8 8.3 2.9 11.2 l2.1 5.2 -2.6 1.9 -2.7 2 3 2.8 c2.5 2.3 3.3 4.3 4.4 9.9 0.7 3.9 1.7 7.6 2.3 8.3 0.5 0.6 0.7 2.4 0.4 4 -0.3 1.5 0.1 3.8 0.8 5.2 0.8 1.4 1.4 4.1 1.5 6.1 0 1.9 0.5 4 1.1 4.6 0.8 0.8 0.7 2.1 -0.2 4.7 -1 2.8 -1 3.9 -0.1 4.8 1.5 1.5 1.6 5 0.1 6.5 -0.8 0.8 -0.9 2 -0.1 4.3 0.6 1.7 0.9 3.7 0.5 4.6 -0.3 0.8 0.3 2.4 1.3 3.5 1.5 1.7 1.9 3.6 1.8 9 -0.2 6.3 -0.4 7.1 -2.9 9.1 -2.1 1.6 -2.6 2.7 -2.3 4.9 0.3 1.9 -0.2 3.5 -1.4 4.6 -1 0.9 -1.8 2.9 -1.8 4.4 0 3.2 -3.3 6.1 -5.9 5.2 -3.6 -1.3 -9.1 -6.5 -9.1 -8.6 0 -1.2 -0.9 -3.3 -2 -4.7 -1.1 -1.4 -2 -3.3 -2 -4.2 0 -1.5 -2.4 -7.6 -5.1 -13 -0.5 -1 -0.9 -2.9 -0.9 -4.2 0 -1.4 -0.4 -2.7 -0.9 -3.1 -1.2 -0.7 -4.1 -13.4 -4.1 -18 0 -2 -0.7 -4.9 -1.5 -6.4 -0.8 -1.6 -1.7 -6.6 -2.1 -11.2 -0.3 -4.6 -1.9 -14.8 -3.5 -22.7 -1.6 -7.9 -2.9 -16.1 -2.9 -18.2 0 -3.9 -0.8 -8.1 -3.2 -17.7 -0.7 -2.7 -1.3 -6.6 -1.4 -8.8 -0.1 -2.2 -0.5 -5.6 -1 -7.5 -0.4 -1.9 -0.7 -5.5 -0.6 -8 0.2 -2.5 -0.6 -7.1 -1.7 -10.2 -1.2 -3.5 -1.8 -7.1 -1.4 -9.1 0.3 -1.8 0 -5.1 -0.7 -7.3 -1.4 -4.9 -4.2 -22.8 -4.1 -27.3 0 -1.9 -0.5 -4.4 -1.2 -5.5 -1.2 -2.3 -2.8 -11.4 -2.8 -16 0 -1.6 -0.4 -3.5 -1 -4.2 -0.6 -0.7 -0.9 -2.3 -0.8 -3.6 0.2 -1.3 0.1 -2.7 -0.2 -3.3 -0.4 -0.5 -1.2 -6.2 -1.8 -12.5 -0.7 -6.3 -2.3 -16.2 -3.6 -22 -1.3 -5.8 -2.6 -12.4 -3 -14.7 -0.4 -2.4 -1.5 -5.3 -2.6 -6.5 l-1.9 -2.3 -4.4 4.8 c-2.6 2.8 -5.4 7.2 -6.6 10.5 -1.2 3.1 -2.7 6.4 -3.5 7.2 -0.7 0.8 -1.6 3.1 -2 5 -0.4 1.9 -1.6 4.4 -2.6 5.5 -1.1 1.3 -2 4.1 -2.3 7.3 -0.2 2.9 -0.9 5.9 -1.6 6.7 -0.6 0.8 -0.8 1.9 -0.4 2.6 0.4 0.6 0.8 7.5 1 15.2 0.2 8.2 1 16.6 1.8 20.1 0.9 3.4 1.5 8.4 1.5 11.1 -0.1 2.8 0.6 6.7 1.5 8.9 0.9 2.1 1.6 4.8 1.6 6 0 1.1 0.9 3.6 2 5.4 1.1 1.8 2 4.3 2 5.7 0 1.3 0.5 2.7 1 3 0.6 0.3 1 1.5 1 2.6 0 1.1 0.7 3 1.6 4.4 0.8 1.3 2 5.3 2.5 9 0.5 3.7 1.6 7.6 2.4 8.8 0.8 1.2 1.5 3.2 1.5 4.5 0 1.3 0.9 3.5 1.9 4.9 1.1 1.3 1.7 3.1 1.5 3.8 -0.3 0.8 0.1 2.4 1 3.6 1.1 1.6 1.4 3.4 0.9 6.1 -0.4 3.1 -0.1 4.3 1.5 6.1 1.3 1.3 2.5 4.6 3.1 8.2 0.5 3.3 2.3 9.9 4 14.7 1.7 4.7 3.1 9.8 3.1 11.2 0 1.8 0.9 3 3 4.1 4.9 2.5 5.2 4.4 1.6 9 -1.8 2.2 -3.1 4.7 -2.9 5.6 0.6 2.6 -2.6 3.1 -5.7 0.9 -1.5 -1.1 -3.7 -2 -4.9 -2 -3.8 0 -16.3 -14.3 -16.6 -19.1 -0.2 -1.7 -1.1 -4 -2.2 -5.2 -1 -1.2 -3.5 -4.9 -5.4 -8.2 -2 -3.3 -5.4 -9.2 -7.7 -13.1 -2.3 -3.8 -4.2 -7.6 -4.2 -8.2 0 -0.7 -0.4 -1.2 -1 -1.2 -0.5 0 -1 -0.9 -1 -2.1 0 -1.1 -0.9 -3.2 -2 -4.6 -1.1 -1.4 -2 -3.3 -2 -4.1 0 -0.9 -1.9 -4.7 -4.1 -8.6 -2.5 -4.1 -4.4 -8.7 -4.7 -11.2 -0.2 -2.4 -1.3 -5.1 -2.3 -6 -1.1 -0.9 -1.9 -2.6 -1.9 -3.6 0 -1 -0.9 -3.6 -2 -5.7 -1 -2.1 -2.4 -6 -3.1 -8.7 -0.7 -2.7 -2.3 -7 -3.5 -9.6 -1.3 -2.6 -2.4 -5.8 -2.4 -7 0 -1.3 -0.7 -3.3 -1.5 -4.5 -0.8 -1.2 -1.2 -2.8 -0.9 -3.6 0.5 -1.5 -5.3 -15.7 -6.5 -15.7 -2.9 0 -4.5 24.1 -2.2 32 0.6 1.9 1.1 5.8 1.1 8.5 0 2.8 0.5 5.6 1 6.1 0.6 0.6 1.3 3.5 1.6 6.5 0.4 3 1.3 6.4 2 7.6 0.8 1.2 1.4 3.8 1.4 5.6 0 2.7 0.9 4.4 4.6 8 3.5 3.5 4.5 5.2 4.3 7.4 -0.2 3.3 2 12.1 3.2 12.9 0.5 0.3 0.9 1.5 0.9 2.7 0.1 1.2 0.7 3.3 1.5 4.7 0.9 1.8 1 2.9 0.3 3.8 -0.8 0.9 -0.6 1.7 0.6 3 0.9 1 1.6 2.5 1.6 3.4 0 0.8 0.9 2.3 1.9 3.2 1.1 1 2.3 3.1 2.6 4.7 0.4 1.6 1.1 3.1 1.6 3.4 0.5 0.4 0.9 1.7 0.9 3 0 1.3 0.4 2.6 0.9 2.9 0.5 0.3 1.2 2.1 1.5 4 0.4 1.9 1.3 3.9 2.1 4.6 0.7 0.6 1.1 1.8 0.8 2.6 -0.3 0.8 -0.1 1.4 0.4 1.4 1 0 4 8.2 4.3 11.5 0.1 1.1 0.2 3.4 0.3 5.2 0.1 1.7 1.1 4 2.1 5.2 1.3 1.4 1.6 2.8 1.2 4.6 -0.4 1.6 0.2 4.5 1.8 8.2 1.3 3.2 2.7 7.8 3.1 10.3 0.4 2.5 1.6 6.2 2.6 8.2 1.1 2.1 1.9 4.5 1.9 5.5 0 1 1.2 3.6 2.5 5.8 2.7 4.4 3.1 7.5 1.4 12.4 -1.3 3.8 -2.1 3.8 -8.8 0.4z"/>
        <path d="M324 303.5 c-3 -2.5 -6.1 -5.9 -6.9 -7.7 -1.9 -4.3 -3.2 -33.8 -2.3 -51.3 0.1 -2.7 0.2 -6.1 0.2 -7.5 0 -1.4 0.1 -3.4 0.2 -4.5 0.2 -1.5 -0.4 -2.1 -2.2 -2.3 -1.4 -0.2 -4.4 -1 -6.7 -1.9 -2.4 -0.9 -5.5 -1.3 -7.2 -1 -1.9 0.4 -3.3 0.1 -4.1 -0.8 -1.4 -1.6 -5.7 -2 -7.9 -0.6 -2.1 1.3 -3.5 30.8 -1.6 33.8 1.3 1.9 1.3 2.5 0 5 -0.8 1.5 -1.5 4.5 -1.5 6.5 0 5.8 -2.8 5.7 -9.2 -0.4 -1.9 -1.8 -4.9 -4.4 -6.6 -5.8 -5 -3.8 -6 -6.8 -5.7 -16 0.2 -4.5 0 -10.8 -0.5 -13.9 -0.5 -3.9 -0.3 -6.5 0.6 -8.6 0.7 -1.6 2 -11.3 2.9 -21.5 0.9 -10.2 2.1 -19.4 2.6 -20.5 0.5 -1.1 0.8 -3.6 0.8 -5.5 -0.1 -2.5 1.4 -25.2 2.1 -30.8 0 -0.2 0.5 0 1 0.3 0.6 0.4 1 -1.3 1 -4.4 0 -3.1 0.4 -5.1 1.1 -5.1 0.7 0 0.9 -1.1 0.6 -2.9 -0.3 -1.5 -0.2 -3.2 0.3 -3.7 1.6 -1.6 1 -13.8 -0.8 -15.6 -0.6 -0.6 -1.2 -2.2 -1.2 -3.5 0 -1.8 0.6 -2.3 2.4 -2.3 3.7 0 5.6 -2.6 5.6 -7.4 0 -2.9 -0.7 -5.1 -2 -6.6 -2.2 -2.5 -2.6 -4.5 -1 -5.5 0.6 -0.3 1 0.3 1 1.4 0 1.2 0.5 2.1 1 2.1 0.6 0 1 -1.4 1 -3.1 0 -1.8 0.9 -4.7 2.1 -6.6 1.2 -1.8 1.8 -4 1.5 -4.8 -0.3 -0.8 0 -1.5 0.5 -1.5 0.7 0 0.9 -1.1 0.7 -2.5 -0.3 -1.4 -0.2 -2.5 0.2 -2.5 1 0 2.1 -7.1 1.3 -8.4 -1.6 -2.6 -1 -6.4 1.8 -10.7 3.9 -6.1 8.6 -8.1 19.9 -8.3 8.7 -0.2 12.2 -1.5 16 -6.1 2.2 -2.6 4.3 -1.7 11.2 5 7.4 7.2 12.3 15.8 13.4 23.3 0.3 2.6 1.2 5.4 1.9 6.2 2.7 3.2 4.8 8.7 4.7 12.2 -0.1 2 0.5 4.9 1.3 6.5 0.8 1.5 1.3 4 1 5.4 -0.3 1.4 -0.2 3.6 0.3 4.9 0.6 1.6 0.4 4.4 -0.6 8.3 -1.4 5.5 -1.4 6.2 0.3 9.3 1.5 2.8 1.6 3.9 0.7 6 -0.7 1.3 -1.2 4.4 -1.2 6.8 0 3.5 0.4 4.5 2 4.9 2.5 0.6 2.6 4.1 0.5 11.1 -1 3.4 -1.2 5.3 -0.5 6 1.7 1.7 1.2 7.7 -0.7 9.2 -1.7 1.3 -1.7 1.3 0 1.4 1.9 0 1.9 0.1 1.7 8.5 -0.2 6.8 -0.4 7.3 -2.4 5.6 -2.6 -2.2 -3.7 -0.2 -3.4 5.9 0.1 3.1 -0.2 6.4 -0.8 7.1 -2.7 3.4 -0.6 18.6 2.3 17.4 0.7 -0.2 1.3 0 1.3 0.5 0 0.6 -0.9 1 -2 1 -2.8 0 -3.6 2.7 -1.5 5 1.3 1.4 1.6 2.8 1.1 5.1 -0.5 2.5 -0.1 3.5 1.7 4.9 l2.2 1.8 -2.2 2.4 c-1.4 1.5 -2.3 3.9 -2.5 6.7 -0.2 2.6 -0.9 4.6 -1.7 4.9 -1 0.3 -1.2 -0.3 -0.6 -2.7 0.6 -2.7 0.4 -3.1 -1.4 -3.1 -1.2 0 -2.1 0.5 -2.1 1.1 0 0.7 -0.8 1.7 -1.7 2.4 -1.3 1 -1.8 3.2 -2.2 9.1 -0.2 4.4 -0.6 11.6 -0.8 16.1 -0.3 4.7 0 9 0.6 10 0.9 1.6 1 1.6 1.1 -0.4 0 -3.3 1.6 -2.8 2.9 0.7 0.7 2.2 0.7 3 -0.2 3.2 -0.7 0 -1.6 0.2 -2.2 0.2 -0.5 0.1 -1.9 0.7 -3 1.3 -1.9 1.1 -2 1.2 -0.2 4.2 2.7 4.5 1.5 9.5 -2.6 11.3 -1.8 0.7 -4.3 1.3 -5.7 1.3 -2.2 0 -2.5 0.4 -2.2 3.3 0.3 3 -1.1 6.3 -2.7 6.2 -0.3 -0.1 -3.1 -2.1 -6.1 -4.5z m-20.4 -103.7 c0.4 -0.5 3.5 -0.8 6.9 -0.8 l6.2 0 0 -14.9 c0 -8.2 0.6 -18.5 1.4 -23.1 1 -6.4 1 -8.6 0.1 -10.1 -0.7 -1.1 -1 -2.9 -0.7 -4.2 0.3 -1.2 0.7 -13.9 0.9 -28.2 0.3 -20.4 0 -28 -1.2 -35.2 -1.7 -9.9 -3.5 -12 -4.7 -5.5 -0.4 2 -1.4 4.5 -2.2 5.4 -1 1.1 -1.3 2.6 -0.9 4.4 0.5 1.8 0.2 3.2 -1 4.5 -1.3 1.4 -1.5 2.8 -1 6.2 0.5 3.4 0.3 4.6 -0.7 5 -1 0.4 -1.8 3.7 -2.6 10.9 -0.7 5.7 -1.6 11.1 -2.2 12.1 -0.5 1 -0.9 4.2 -0.8 7.2 0.2 3.4 -0.3 6 -1.1 7.1 -0.8 0.9 -1.5 3.8 -1.6 6.3 0 2.6 -0.4 5.3 -0.8 5.9 -0.4 0.7 -0.5 1.6 -0.2 2.1 0.3 0.4 0.1 2.2 -0.4 3.9 -0.5 2 -0.5 3.4 0.2 3.8 1.5 0.9 0 5.6 -2.6 7.9 -1.7 1.6 -2.5 4.2 -3.9 13 -1.8 11.5 -2.1 15.8 -1.1 16.7 0.8 0.9 13.1 0.4 14 -0.4z"/>
        <path d="M293 183.6 c0 -4.3 1.6 -5.6 2.2 -1.7 0.5 3.2 0 5.1 -1.3 5.1 -0.5 0 -0.9 -1.5 -0.9 -3.4z"/>
        <path d="M382.7 306.3 c-1.6 -1.5 -0.4 -4.1 4.2 -9.5 8.5 -10 9.6 -12.3 9.6 -21 0 -6.4 -0.3 -8 -2.2 -10 -4.1 -4.4 -5.3 -24.6 -1.7 -28.8 0.7 -0.8 1.6 -2.8 2 -4.5 0.8 -3.5 3.2 -6.9 9.6 -13.6 4.8 -5 6.2 -5.7 7.3 -3.9 0.8 1.3 5.8 1.3 12.9 -0.2 4.7 -0.9 5.9 -1.6 6.7 -3.6 0.9 -2.3 1.3 -2.4 5.6 -1.8 5.6 0.7 6.8 1.7 5.5 4.2 -0.9 1.8 0.5 6.1 3.7 11.4 3.1 5.2 3.4 6.9 1.7 9.4 -0.9 1.4 -2.7 3.3 -4.1 4.2 -1.3 0.9 -2.7 2.4 -3 3.5 -0.8 2.3 -5.5 4.9 -8.9 4.9 -1.4 0 -4.4 -0.7 -6.7 -1.7 -3.9 -1.5 -4.3 -1.5 -7.6 0.2 -6 3.3 -5.9 4.7 0.4 9.1 7 4.9 8.1 6.5 6.8 10.1 -0.6 1.6 -0.8 4.4 -0.5 6.3 0.3 1.9 0.2 4.6 -0.2 5.9 -0.5 1.4 -0.4 2.9 0.3 3.7 1.1 1.4 0.7 2.6 -1.9 5.7 -1.4 1.6 -1.6 1.6 -2.8 -0.2 -1.3 -1.8 -1.8 -1.4 -8.5 5.4 -3.9 4 -8.5 7.9 -10.2 8.6 -1.8 0.7 -4.3 2.1 -5.6 3.1 -1.3 1 -3.9 1.8 -5.7 1.8 -1.8 0 -3.6 0.5 -3.9 1 -0.7 1.2 -1.9 1.3 -2.8 0.3z"/>
        <path d="M347.7 269.3 c-1.3 -1.2 -0.7 -7.1 0.8 -8.3 2.3 -1.9 4.1 0.1 2.6 2.8 -0.6 1.1 -1.1 3 -1.1 4.1 0 2.1 -1.1 2.7 -2.3 1.4z"/>
        <path d="M237.7 255.3 c-2.2 -2.8 -4.3 -6.9 -5.2 -10.2 -0.9 -3.1 -2.2 -7.6 -3.1 -10.1 -3.1 -8.7 -7.3 -36.6 -8.4 -56.3 -1.1 -19.3 -1.4 -60.2 -0.5 -61.7 0.3 -0.5 0.8 -9.8 1.1 -20.7 0.3 -10.9 1 -20.2 1.4 -20.7 1.1 -1.1 3 0.1 3 1.9 0 0.8 1.7 2.3 3.8 3.4 5.7 3 13.2 11.8 13.2 15.7 0 0.9 1 2.9 2.1 4.6 1.8 2.5 2.1 4.3 2 10.4 -0.1 4.5 0.6 10.8 1.9 16.3 1.7 7.1 1.9 9.4 1 11.1 -0.7 1.2 -0.9 3.3 -0.5 4.7 0.3 1.4 0.1 4.9 -0.6 7.8 -1 4.5 -0.9 5.6 0.5 7.6 1.9 2.8 2.1 6.2 0.4 8.9 -1 1.6 -1 2.4 0 4 1.4 2.3 1.6 5.6 0.3 6.4 -0.9 0.6 -0.6 20 0.4 21.6 1.1 1.8 -0.4 7.8 -2.1 8.4 -1.8 0.7 -1.5 5.1 0.4 5.1 2.1 0 3.2 2.7 3.2 7.8 0 6.1 -1.4 8.7 -4.5 8.7 -2.2 0 -2.5 0.5 -2.5 3.4 0 1.9 0.5 3.8 1 4.1 1.7 1.1 1.1 7.1 -1.1 9.9 -1.5 2 -2 3.8 -1.8 7.3 0.2 2.6 -0.1 4.8 -0.6 5 -0.6 0.1 -2.7 -1.8 -4.8 -4.4z"/>
        <path d="M349 249.5 c0 -0.8 0.9 -1.9 2 -2.5 1.5 -0.8 2 -0.8 2 0.3 0 1.4 -1.9 3.7 -3.2 3.7 -0.4 0 -0.8 -0.7 -0.8 -1.5z"/>
        <path d="M356.6 206.4 c-1 -2.5 -0.7 -7.4 0.4 -7.4 0.6 0 1 2 1 4.5 0 4.7 -0.4 5.5 -1.4 2.9z"/>
        <path d="M0.6 204.4 c-0.4 -0.9 -0.5 -1.8 -0.4 -1.9 0.2 -0.1 4.7 -3.2 10.1 -6.9 6.5 -4.5 10.2 -6.5 10.9 -5.8 0.6 0.6 -1.9 2.9 -7.4 6.8 -4.6 3.1 -9.1 6.6 -10.1 7.6 -2.2 2.2 -2.3 2.2 -3.1 0.2z"/>
        <path d="M22.5 205 l-9 -0.6 7.3 -0.2 c4 -0.1 8.2 -0.7 9.3 -1.2 1.6 -0.9 1.9 -0.7 1.9 1 0 1.1 -0.1 1.9 -0.2 1.8 -0.2 -0.1 -4.3 -0.5 -9.3 -0.8z"/>
        <path d="M381.6 190.1 c-1.2 -1.8 1.9 -21.4 4.8 -31.1 0.8 -2.5 2 -7.9 2.6 -12 0.7 -4.1 1.7 -7.9 2.2 -8.4 0.4 -0.6 0.8 -2 0.8 -3.2 0 -1.2 0.7 -2.7 1.5 -3.4 0.8 -0.7 1.5 -2.4 1.5 -3.7 0 -1.4 0.6 -3.9 1.4 -5.6 2.9 -7 3.6 -8.9 3.6 -10.6 0 -1 1.1 -2.8 2.5 -4.1 1.4 -1.3 2.5 -3.4 2.5 -4.6 0 -1.3 0.4 -2.5 0.9 -2.8 0.5 -0.4 1.2 -2.4 1.6 -4.6 0.4 -2.2 1.1 -4.2 1.6 -4.6 0.5 -0.3 2 -2.7 3.4 -5.4 2.9 -5.7 4.8 -7.4 4.4 -3.9 -0.3 2.5 2.6 8.9 3.9 8.9 0.5 0 2.9 2 5.5 4.5 3.1 2.9 4.7 5.3 4.7 6.9 0 1.4 0.5 2.8 1 3.1 1.7 1.1 1.1 6.8 -1.3 12 -1.3 2.8 -2.7 6.2 -3 7.7 -0.4 1.5 -2.1 3.6 -3.8 4.8 -1.8 1.3 -2.8 2.8 -2.5 3.6 0.3 0.8 0 2.6 -0.6 4 -0.9 1.8 -1.7 2.4 -3.2 2 -2.6 -0.6 -5.8 1.9 -7.7 6.2 -0.7 1.8 -2.2 3.5 -3.1 3.8 -1.1 0.3 -1.8 1.5 -1.8 2.9 0 1.4 -1.2 3.3 -2.9 4.7 -1.7 1.3 -3.8 4.3 -4.9 6.8 -1.1 2.5 -3.1 5.6 -4.5 7 -1.5 1.4 -2.7 3.2 -2.7 4.1 0 0.9 -0.8 2.7 -1.9 4 -1 1.3 -2.1 4 -2.5 6 -0.7 4 -3 6.7 -4 5z"/>
        <path d="M475.6 185.1 c-1.6 -1.7 -1.6 -1.9 0.4 -2.4 1.6 -0.4 2 0 2 1.9 0 2.9 -0.2 2.9 -2.4 0.5z"/>
        <path d="M1 176.2 c-0.5 -0.2 -1 -1.1 -1 -2 0 -1.5 1.6 -1.7 16 -1.4 14.3 0.3 16 0.5 16 2 0 1.5 -1.5 1.7 -15 1.7 -8.2 0 -15.4 -0.1 -16 -0.3z"/>
        <path d="M455.6 175.2 c-0.2 -0.4 4.7 -3.2 11 -6.2 10.9 -5.2 11.4 -5.4 11.4 -3.3 0 1.3 -0.5 2.3 -1.1 2.3 -0.6 0 -5.2 1.8 -10.1 4 -9.6 4.2 -10.4 4.5 -11.2 3.2z"/>
        <path d="M444.9 167.3 c-1.2 -3.2 -0.3 -7.6 1.4 -7 0.7 0.2 1.1 1.5 0.9 2.8 -0.2 1.3 -0.3 3.4 -0.4 4.7 0 2.9 -0.6 2.8 -1.9 -0.5z"/>
        <path d="M9.7 162.6 c-0.6 -1.4 0.6 -1.6 8.6 -1.6 10.2 0 13.8 -1.2 14.8 -5 l0.7 -2.5 0.1 2.6 c0.1 1.5 -0.8 3.7 -1.8 5 -1.7 2.2 -2.8 2.4 -11.9 2.7 -8.3 0.3 -10 0.1 -10.5 -1.2z"/>
        <path d="M475.7 160.3 c-0.4 -0.3 -0.7 -1.8 -0.7 -3.2 0.1 -2.5 0.1 -2.5 1.5 -0.7 2.3 3 1.5 6.3 -0.8 3.9z"/>
        <path d="M464.3 153.2 c-7.4 -0.2 -9.3 -0.6 -9.3 -1.7 0 -1.2 1.8 -1.5 9.4 -1.5 5.9 0 9.7 -0.4 10.2 -1.1 0.4 -0.8 0.9 -0.7 1.5 0.2 2.2 3.6 -0.4 4.5 -11.8 4.1z"/>
        <path d="M9.9 146.8 c-0.9 -1.7 -0.1 -1.8 11.6 -1.8 10.2 0 12.5 0.3 12.5 1.4 0 1.2 -2.3 1.5 -11.6 1.8 -10.2 0.3 -11.7 0.1 -12.5 -1.4z"/>
        <path d="M474.8 143.4 c-0.5 -0.4 -0.8 -2 -0.8 -3.6 l0 -2.8 -7.9 0 c-4.4 0 -9.2 0.5 -10.7 1 -3.3 1.3 -3.8 0.9 -2 -1.5 1 -1.4 3.3 -1.9 11.7 -2.5 9.3 -0.6 10.6 -0.5 12.4 1.2 1.7 1.6 1.7 1.8 0.3 1.8 -1.2 0 -1.8 1 -2 3.6 -0.2 2 -0.6 3.2 -1 2.8z"/>
        <path d="M12.5 139.1 c-0.3 -0.5 0.5 -1.1 1.7 -1.3 1.8 -0.2 2.9 -1.8 5 -7.2 1.6 -3.8 3.3 -7.5 3.9 -8.3 1.5 -1.7 5 -1.7 7.4 0.1 1.9 1.3 1.8 1.4 -0.5 0.9 -3.2 -0.6 -5.2 1.6 -7.4 8.1 -0.9 2.7 -2.3 5.8 -3.3 6.8 -1.7 1.9 -5.8 2.4 -6.8 0.9z"/>
        <path d="M30 138.7 c2.7 -1.5 3.6 -1.4 2.5 0.2 -0.3 0.6 -1.6 1.1 -2.8 1.1 -2.1 0 -2.1 -0.1 0.3 -1.3z"/>
        <path d="M457 128 c-1.2 -0.8 -0.9 -1 1.3 -1 2.4 0 3.1 -0.8 5.6 -6.2 3.4 -7.7 5.1 -9.3 8.8 -8.3 2.4 0.7 2.5 0.9 0.8 1.3 -3.1 0.7 -4.1 1.8 -6 7 -2.9 7.7 -6.2 10 -10.5 7.2z"/>
        <path d="M10 123.6 c0 -1 0.8 -1.6 2.2 -1.6 1.2 0 1.9 0.1 1.7 0.3 -0.2 0.1 -1.2 0.9 -2.1 1.6 -1.5 1.2 -1.8 1.1 -1.8 -0.3z"/>
        <path d="M10.1 115.3 l-1.1 -2.3 11.5 0 c10.7 0 11.5 0.1 11.5 1.9 0 1.8 -0.9 2 -10.5 2.3 -10 0.3 -10.5 0.2 -11.4 -1.9z"/>
        <path d="M0.5 116 c-0.4 -0.6 -0.1 -1.7 0.5 -2.6 1.5 -1.8 4.2 0 3.3 2.2 -0.6 1.6 -2.9 1.9 -3.8 0.4z"/>
        <path d="M454 113.9 c0 -1.1 2.5 -2.2 3.9 -1.7 0.6 0.1 -0.1 0.8 -1.4 1.5 -1.4 0.6 -2.5 0.7 -2.5 0.2z"/>
        <path d="M18.3 106.5 c-4.3 -1.9 -4.2 -2.4 0.5 -1.8 7.7 1 14.2 -5.6 12.8 -13.1 l-0.6 -3.1 1.5 2.5 c1.9 3.2 1.9 6.4 0 10.4 -2.6 5.4 -8.6 7.6 -14.2 5.1z"/>
        <path d="M453.5 103.9 c-0.4 -0.6 -0.5 -1.2 -0.3 -1.4 0.2 -0.2 5.5 -0.5 11.7 -0.6 9.6 -0.1 11.5 0.1 12.3 1.5 0.8 1.4 -0.3 1.6 -11.1 1.6 -7.4 0 -12.2 -0.4 -12.6 -1.1z"/>
        <path d="M9 94.4 c0 -3.4 2.1 -8.4 3.6 -8.4 1.7 0 1.9 2.6 0.3 3.6 -0.6 0.3 -1.7 2 -2.5 3.8 -1 2.4 -1.3 2.7 -1.4 1z"/>
        <path d="M453.1 93.4 c-0.1 -1.2 0.8 -3.2 1.8 -4.5 1.7 -2.2 2.8 -2.4 11.9 -2.7 8.3 -0.3 10 -0.1 10.5 1.2 0.6 1.4 -0.5 1.6 -8.3 1.6 -10.1 0 -13.7 1 -15 4.2 -0.9 2.3 -0.9 2.3 -0.9 0.2z"/>
        <path d="M278.1 81.9 c-0.1 -3 0.4 -5.1 1.4 -5.9 0.8 -0.7 1.5 -2.3 1.5 -3.7 0 -1.4 0.4 -2.1 1 -1.8 1.5 0.9 1.2 4.6 -0.5 6.5 -0.8 0.9 -1.9 3.4 -2.4 5.6 l-0.9 3.9 -0.1 -4.6z"/>
        <path d="M453.7 79.3 c-0.4 -0.3 -0.7 -1.2 -0.7 -2 0 -1 2.3 -1.3 9.9 -1.3 9.6 0 10 -0.1 12 -2.6 2.2 -2.8 2.8 -1.7 1 1.8 -1.1 2.1 -1 2.1 7 1.5 4.4 -0.4 8.1 -0.5 8.1 -0.3 0 0.3 0.3 1.1 0.6 2 0.5 1.4 -1.5 1.6 -18.3 1.6 -10.4 0 -19.3 -0.3 -19.6 -0.7z"/>
        <path d="M453.4 65.6 c0.3 -2.1 1.2 -4.7 2.1 -5.6 4.1 -4.5 11.6 -4.9 16.5 -0.9 l2.5 2 -2.4 -1.1 c-3.3 -1.7 -11.6 -0.7 -14.2 1.6 -1.2 1 -2.8 3.3 -3.6 4.9 l-1.4 3 0.5 -3.9z"/>
        <path d="M282.6 67.3 c-1.1 -1.1 -0.6 -2.3 0.9 -2.3 0.8 0 1.5 0.4 1.5 0.9 0 1.3 -1.6 2.2 -2.4 1.4z"/>
        <path d="M453 49.5 c0 -1.9 0.6 -2 8.6 -1.7 9.9 0.4 13.9 -0.8 15.3 -4.7 l0.9 -2.6 0.1 2.6 c0.1 1.5 -0.8 3.7 -1.8 5 -1.7 2.1 -2.9 2.4 -12.5 2.9 -10.1 0.5 -10.6 0.4 -10.6 -1.5z"/>
        <path d="M453 32.5 c0 -1.2 1.8 -1.5 10.4 -1.5 6.7 0 10.7 -0.4 11.2 -1.1 0.4 -0.8 1 -0.6 1.7 0.6 1.5 2.8 -0.9 3.5 -12.5 3.5 -8.9 0 -10.8 -0.3 -10.8 -1.5z"/>
        <path d="M482.5 22.8 c-2.2 -0.5 -9.7 -0.8 -16.7 -0.5 -12.5 0.5 -12.8 0.4 -12.8 -1.7 0 -2.1 0.3 -2.1 17 -2.1 l17 0 0 2.8 c0 1.5 -0.1 2.7 -0.2 2.6 -0.2 -0.1 -2.1 -0.5 -4.3 -1.1z"/>
    </g>
</svg>