<svg xmlns="http://www.w3.org/2000/svg" version="1.2" baseProfile="tiny-ps" width="110" height="58"
     viewBox="0 0 3544 1844" preserveAspectRatio="xMidYMid meet" fill="none">
    <g fill="#334155">
        <path d="M557 1319.7 l-134.5 -218.2 -0.3 174.8 -0.2 174.7 -71 0 -71 0 0 -350.8 0 -350.8 62.1 -36.3 c34.1 -20 62.1 -36.2 62.3 -36 0.2 0.2 33.8 88.6 74.7 196.4 l74.4 196 0.3 -206.5 0.2 -206.6 68.6 -22.7 c37.8 -12.5 68.8 -22.6 69 -22.4 0.2 0.2 0.3 208.8 0.2 463.5 l-0.3 463.1 -134.5 -218.2z"/>
        <path d="M2735.6 1459.9 l-49.9 -55.9 -5.6 10.3 c-13 23.7 -25.5 36.9 -43.3 45.7 -11.7 5.7 -21.8 8.1 -36.9 8.7 -35 1.5 -67.2 -11.8 -94.5 -39.1 -16 -16.1 -26.2 -32.9 -33.8 -55.7 -11 -32.8 -11.6 -47 -11.6 -268.4 0 -198.2 0.8 -227.6 7.1 -264.3 4.5 -26.4 14.5 -45.5 34.8 -66.6 25.5 -26.3 53.7 -40.1 91.3 -44.7 14.9 -1.8 50.4 -0.7 64.7 2 32.8 6.2 59.2 19.6 82.1 41.7 21.4 20.7 31.6 39.7 37.9 70.5 4.3 20.7 7.1 49.9 7.1 73.1 0 12.4 -0.1 12.8 -2.2 13.3 -3.1 0.7 -126.5 24.5 -127.2 24.5 -0.3 0 -0.6 -10.7 -0.6 -23.7 -0.1 -33.5 -1.7 -73.3 -3.4 -83.1 -0.8 -4.5 -2.4 -10.2 -3.6 -12.7 -4.8 -9.9 -15.1 -15.2 -28.1 -14.3 -13.2 1 -22.2 9 -25.3 22.6 -3.5 15.5 -3.7 33.9 -3.3 265.7 0.3 205.2 0.5 227.9 2 236.2 2.2 12.2 4.9 18.3 10.6 23.6 5.9 5.5 10.6 7.2 20.1 7.1 17.1 -0.1 27.2 -9.9 31.4 -30.4 2.8 -13.7 3.6 -35 3.6 -91.7 l0 -56.3 -15 0 -15 0 0.2 -41.2 0.3 -41.3 78 -17.1 78 -17.1 0.3 108.9 c0.1 59.9 0.1 157.7 0 217.2 l-0.3 108.3 -49.9 -55.8z"/>
        <path d="M1255 1466.9 c-59.1 -7.6 -105.8 -43.3 -121.5 -93 -7.1 -22.7 -11.2 -54.8 -13 -101.9 l-0.5 -15.5 59 -21.5 c32.5 -11.8 59.5 -21.6 60 -21.8 0.6 -0.2 1 15.2 1 43 0 70.6 2.1 86.9 12.5 97.3 6 5.9 11.4 7.9 22 8 10.7 0 16 -2 22.5 -8.5 12.2 -12.2 16.8 -36.4 15 -78.7 -1.7 -38.5 -6.3 -58.3 -16.9 -72.3 -6.4 -8.6 -29.9 -31.7 -49.6 -48.8 -9.8 -8.7 -26.9 -23.6 -38 -33.2 -26.7 -23.3 -51.8 -48.3 -58.5 -58.4 -15.4 -23.1 -26.2 -55.2 -30.6 -91.1 -2.1 -17.8 -3 -63.5 -1.5 -86.3 4 -63.6 14.2 -93.5 40.6 -119.8 18.4 -18.3 42.8 -30.6 72.2 -36.5 13.5 -2.7 47.5 -3.8 63.4 -2 53.1 6.1 96.1 32 113.9 68.6 9.5 19.5 14.3 48.3 15.7 92.7 l0.6 21.6 -3.9 1.1 c-2.1 0.5 -28.5 7.5 -58.5 15.5 -30 8.1 -55.1 14.6 -55.8 14.6 -0.8 0 -1.1 -6.9 -1.1 -24.7 0 -28.6 -1.3 -50.4 -3.5 -60.2 -2.7 -11.9 -9.4 -19.7 -19.1 -22.7 -16.9 -5.1 -32.4 3.7 -39.3 22.2 -3.7 9.9 -5.2 21.6 -5.2 41.9 0 39.8 5.1 58.6 21 77.2 7.5 8.7 17.4 17.3 46.3 40.2 58 46.1 93.5 83.1 108.3 112.9 13 26.2 20.1 64 22.5 119.8 2.7 61.1 -2.8 115.8 -14.4 143.2 -8.6 20.3 -24.2 38 -46.6 52.5 -19.9 12.9 -41.2 20.6 -66.3 24.2 -11.1 1.6 -41.7 1.8 -52.7 0.4z"/>
        <path d="M887.1 1462.9 c-46.1 -4.9 -84.5 -26.7 -107.8 -61.3 -12.4 -18.4 -21.7 -41.8 -25.3 -63.2 -5 -30.5 -6.4 -98.8 -5.7 -281.9 0.5 -131.1 1.2 -163.4 3.8 -190 6.3 -64.2 42.7 -112.7 98.4 -131.3 19.5 -6.5 45.2 -9.8 67.3 -8.8 66.1 3.2 113.4 33.8 136.6 88.6 15.6 36.7 16.6 53.4 16.6 279.5 0 171.8 -1.1 217.6 -5.5 243.5 -5.7 32.7 -20.3 62 -41.9 83.5 -28.6 28.5 -67.7 42.9 -115.5 42.4 -6.9 -0.1 -16.4 -0.6 -21 -1z m38.4 -93 c6 -3 9.9 -8.3 11.9 -16 4 -15.9 4.1 -19.9 4.1 -262.9 0 -243.5 0 -241.2 -4.1 -255.8 -2 -7.1 -8.1 -13.3 -14.9 -15.3 -7.3 -2.1 -20 -1.7 -25.5 0.8 -13.9 6.2 -17.3 15 -19.1 50.2 -1.5 28.2 -0.6 455.3 1 468.1 3.4 28.3 8.8 34.2 31.1 33.7 9.1 -0.2 11.3 -0.6 15.5 -2.8z"/>
        <path d="M1746 1451 c0 -0.5 31.7 -162.9 70.5 -360.9 38.8 -198 70.5 -360.2 70.5 -360.5 0 -0.3 26.7 -0.6 59.3 -0.6 l59.3 0 63.3 358.8 c34.8 197.3 63.5 359.9 63.8 361.5 l0.5 2.7 -64.1 0 -64.1 0 -0.5 -2.2 c-0.4 -2.2 -20.5 -133.4 -20.5 -134.4 0 -0.2 -18.6 -0.4 -41.4 -0.4 l-41.4 0 -0.6 2.8 c-0.8 3.8 -21.6 132.3 -21.6 133.4 0 0.4 -29.9 0.8 -66.5 0.8 -42.9 0 -66.5 -0.3 -66.5 -1z m232.6 -243.7 c-0.3 -2.1 -7.8 -69.5 -16.6 -149.7 -8.8 -80.2 -16.2 -146.1 -16.4 -146.3 -0.2 -0.3 -0.7 1.5 -1.1 3.9 -1.1 8.4 -33.5 292 -33.5 293.9 0 1.8 1.1 1.9 34.1 1.9 l34.1 0 -0.6 -3.7z"/>
        <path d="M2195 1090.5 l0 -361.5 61.5 0 61.5 0 0 306.5 0 306.5 46 0 46 0 0 55 0 55 -107.5 0 -107.5 0 0 -361.5z"/>
        <path d="M2841 1090 l0 -362 63 0 63 0 0 362 0 362 -63 0 -63 0 0 -362z"/>
        <path d="M1549 1146 l0 -305 -42.5 0 -42.5 0 0 -53.5 0 -53.5 150 0 150 0 0 53.5 0 53.5 -42.5 0 -42.5 0 0 305 0 305 -65 0 -65 0 0 -305z"/>
        <path d="M3024 1089.5 l0 -361.5 114.5 0 114.5 0 0 54 0 54 -49 0 -49 0 0 94.5 0 94.5 45.5 0 45.5 0 0 50.5 0 50.5 -45.5 0 -45.5 0 0 108.5 0 108.5 54 0 54 0 0 54 0 54 -119.5 0 -119.5 0 0 -361.5z"/>
        <path d="M882 604.9 c-33.7 -5.2 -62.2 -29.2 -72.9 -61.4 -1.6 -4.9 -3.4 -12.5 -4 -16.8 -0.7 -5.2 -1.1 -44.5 -1.1 -115.3 l0 -107.5 102.3 0.3 c102.2 0.3 102.2 0.3 110.2 2.5 16.9 4.8 36.7 16.8 47.4 28.9 10.2 11.5 18.2 26.4 22.3 41.4 3.2 11.9 3.2 35.5 0 47.5 -2.9 10.4 -10 25.1 -16.3 33.7 -17.6 23.7 -46.9 38.8 -75.5 38.8 l-8.4 0 0 14 c0 15.9 -1.6 25.3 -6.2 37.4 -5.7 14.9 -19.5 32.1 -33.2 41.5 -7.2 5 -20.3 10.9 -29.1 13.1 -9.4 2.4 -26.3 3.3 -35.5 1.9z m21.2 -52 c11.8 -2.5 22 -10.5 27.4 -21.4 l2.9 -6 0.3 -40.2 0.3 -40.3 32.8 0 c30.1 0 33.4 -0.2 39.4 -2 16.8 -5.2 29.2 -21 30.4 -38.9 1.3 -19.1 -8.3 -35.7 -25.6 -44 l-7.6 -3.6 -73.7 -0.3 -73.8 -0.3 0 80.4 c0 50.2 0.4 82.4 1 85.8 2.8 14.5 13.9 26.5 28.2 30.3 6.6 1.8 11.2 1.9 18 0.5z"/>
        <path d="M1122 463.8 c0 -160.2 -0.6 -146.4 7.7 -153.9 9.9 -8.9 31.1 -7.5 38.8 2.5 5.7 7.5 5.5 3.1 5.5 128.2 l0 115.3 43.8 0.3 43.7 0.3 5.7 2.7 c6.8 3.1 10.3 7.9 12 16.1 2.5 12 -2.3 23 -12 27.5 l-5.7 2.7 -69.7 0.3 -69.8 0.3 0 -142.3z"/>
        <path d="M1328.7 604.6 c-6.4 -2.4 -11.5 -6.3 -14.4 -11.3 -2.4 -4.1 -2.8 -5.8 -2.7 -12.3 l0 -7.5 51.8 -126 c28.5 -69.3 52.9 -127.9 54.2 -130.2 5.4 -9.3 14.8 -13.9 26.8 -13.1 10.8 0.7 19 5.9 23.6 14.8 3.3 6.4 102.7 250.3 104 255 2.4 9 -0.7 17.9 -8.6 24.9 -11.4 10.1 -29.3 8.9 -37.9 -2.4 -1.5 -1.9 -6.8 -14.1 -11.9 -27.2 l-9.3 -23.8 -62.9 -0.2 -62.9 -0.3 -8.9 22.8 c-10.1 25.9 -13 31.2 -19.3 34.9 -5.5 3.2 -15.7 4.1 -21.6 1.9z m156.3 -108.1 c0 -1 -42.2 -109 -42.9 -109.8 -0.5 -0.5 -37.3 90.9 -43.7 108.6 -0.6 1.6 1.9 1.7 43 1.7 24 0 43.6 -0.2 43.6 -0.5z"/>
        <path d="M1647.2 604.6 c-6.4 -2.1 -10.7 -5.9 -13.9 -12.3 l-2.8 -5.8 -0.3 -44.9 -0.3 -44.8 -46.3 -78.2 c-25.5 -42.9 -46.9 -79.9 -47.5 -82.1 -1.7 -6.1 -1.3 -10.5 1.3 -16 2.4 -5.3 8.3 -11.2 13.7 -14.1 1.8 -0.9 6.1 -1.9 9.5 -2.2 7.6 -0.6 13.7 2 18.6 7.8 1.8 2.1 20 32.2 40.3 66.9 20.4 34.7 37.2 63.1 37.5 63.1 0.3 -0.1 16.9 -29.4 37 -65.2 25.8 -46 37.4 -65.8 39.6 -67.4 11.2 -8.6 25.4 -6.8 35.5 4.4 7.9 8.8 8.8 17.5 2.9 29.3 -1.7 3.4 -22.3 39.3 -45.8 79.8 l-42.7 73.6 -0.5 46 c-0.5 42.4 -0.6 46.3 -2.4 49.5 -2.6 5 -6.5 8.9 -11.1 11.2 -5.1 2.7 -16.3 3.3 -22.3 1.4z"/>
    </g>
</svg>
