<svg xmlns="http://www.w3.org/2000/svg" version="1.2" baseProfile="tiny-ps" width="180" height="58"
     viewBox="379 161 1515 644" preserveAspectRatio="xMidYMid meet" fill="none">
    <g fill="#334155">
        <path d="M217.7 634.9 c-10.4 -1.1 -26.6 -5.1 -35.5 -8.8 -16.2 -6.7 -30.8 -19.7 -37.5 -33.3 -6.5 -13.2 -7.8 -19.9 -8.4 -42 l-0.6 -19.8 38.7 0 38.6 0 0 16.1 c0 9.4 0.5 17.8 1.2 20 1.4 5 6.9 11.4 11.7 13.9 11.1 5.6 28.5 4.1 36.3 -3.2 8.2 -7.8 10.7 -25.3 5.2 -36 -6 -11.6 -18 -20.4 -57.9 -42.2 -37.7 -20.7 -55.4 -35.5 -64.6 -54.1 -5.6 -11.2 -7.3 -21.3 -6.6 -38.5 0.6 -15.6 3.5 -27.3 9.3 -37.7 14.3 -25.7 46.4 -39.3 92.1 -39.3 52.4 0.1 83.8 16.9 93.3 50 1.7 5.8 2.3 11.3 2.7 24.8 l0.6 17.2 -36.2 0 -36.1 0 0 -12.2 c0 -10.8 -0.3 -12.9 -2.4 -17.4 -2.7 -5.8 -8 -10.6 -13.5 -12.3 -6.8 -2 -17.9 -1.4 -23.8 1.3 -9.1 4.3 -14.2 14.5 -13 26.1 1.5 14.6 10.2 22.2 49.4 43.2 40.3 21.5 54.3 31.3 66.5 46.3 11.7 14.4 15.1 25.6 15.2 50 0.1 28.2 -4.6 44.3 -17.2 59.8 -11.6 14.2 -37 25.4 -64.2 28.2 -11 1.1 -32.1 1.1 -43.3 -0.1z"/>
        <path d="M1156.5 634.4 c-10.5 -0.9 -26.3 -3.7 -34 -6.1 -30.7 -9.7 -48 -27.6 -54 -56.3 -1 -4.7 -1.5 -12.8 -1.5 -24.3 l0 -17.2 38 0.3 38 0.2 0 16.8 c0 16 0.1 17.1 2.5 21.9 4.6 9.2 12.5 13.3 25.8 13.3 10.8 0 15.3 -1.5 20.8 -7 5.5 -5.5 7.4 -11.3 7.4 -22 -0.1 -17.8 -9.9 -26.9 -57 -53 -26.8 -14.8 -39.3 -23.1 -49.6 -32.8 -16.1 -15.1 -22.2 -27.5 -24.3 -49.2 -0.8 -7.5 0.7 -23.5 3 -32.4 3.9 -15.6 14.9 -30.4 28.9 -39.1 19.2 -12 49.5 -17.7 82.2 -15.4 43.6 3.1 68.7 18 78 46.3 2.3 7.2 2.7 10 3.1 26.3 l0.4 18.3 -35 0 -34.9 0 -0.5 -12.2 c-0.5 -13.6 -2.2 -19 -7.4 -24.1 -4.7 -4.7 -8.3 -6 -17.6 -6.5 -7.6 -0.4 -9.2 -0.1 -14.1 2.1 -8.4 3.8 -13.7 12.6 -13.7 22.9 0 14.7 9.2 24.3 39.1 40.4 47.3 25.6 55.6 31 69.4 44.8 11 11 15.8 18.7 19.2 30.6 1.5 5.4 1.8 10 1.7 27.5 -0.1 18.2 -0.4 22.1 -2.2 29 -8.2 30.2 -30.4 48 -67.7 54.5 -11 1.9 -34.4 3.1 -44 2.4z"/>
        <path d="M1407.5 631.1 c-12.4 -2.2 -20.2 -4.5 -28.2 -8.1 -26.7 -12.1 -40.9 -35.8 -41.3 -69 -0.1 -4.7 -0.1 -55 -0.1 -111.7 l0.1 -103.3 36 0 36 0 0 109.8 c0 121.6 -0.3 116 6.5 123.9 6.9 8 19.4 11.2 31.1 7.8 4.6 -1.3 6.9 -2.7 10.6 -6.5 8.3 -8.6 7.8 -0.8 7.8 -125.2 l0 -109.8 36.3 0.2 36.2 0.3 0 111 c0 86.3 -0.3 112.6 -1.3 118 -6.3 34.1 -26.1 53.6 -62.7 61.6 -14.4 3.1 -52.3 3.7 -67 1z"/>
        <path d="M2021.8 629.8 c-30.2 -1.7 -55.1 -11.5 -69.9 -27.5 -9.8 -10.7 -15 -22 -17.4 -38.2 -1.9 -12.1 -2.2 -147 -0.4 -161.6 4.8 -39.8 29.7 -62.9 75.2 -69.6 12.5 -1.9 42.2 -1.6 54.2 0.5 37.9 6.8 59.7 23.6 68.6 53.1 1.8 5.7 2.3 10.5 2.6 25.3 l0.5 18.2 -36.1 0 -36.1 0 0 -12.2 c0 -6.8 -0.5 -14.1 -1.1 -16.3 -1.8 -6.3 -6.2 -11.8 -12.1 -15 -4.9 -2.8 -6 -3 -15.8 -3 -8.9 0 -11.1 0.3 -14.5 2.2 -4.7 2.5 -9.6 7.5 -11.9 12 -3.3 6.6 -3.7 17.6 -3.4 89.8 l0.3 71 2.8 5.7 c5 10.2 15.5 15.5 29.1 14.6 7.6 -0.5 15.4 -3.4 19.4 -7.1 1.3 -1.2 3.6 -4.2 5 -6.7 l2.7 -4.5 0.3 -27.2 0.3 -27.3 -14.5 0 -14.6 0 0 -21 0 -21 50.6 0 50.6 0 -0.5 49.8 c-0.4 46.9 -0.5 50.2 -2.6 58.1 -10.6 41 -49.7 61.3 -111.3 57.9z"/>
        <path d="M389.4 622.3 c0.8 -3.9 6.6 -35 30.2 -162.3 11.2 -60.8 20.9 -112.9 21.5 -115.8 l1 -5.2 63.7 0.2 63.6 0.3 4.2 23 c2.4 12.7 10.1 54.7 17.3 93.5 7.1 38.8 16.9 91.4 21.6 117 4.7 25.6 8.8 47.7 9.1 49.3 l0.6 2.7 -38.6 0 c-21.2 0 -38.6 -0.3 -38.6 -0.6 0 -0.4 -3.6 -25 -8 -54.8 -4.4 -29.7 -9.9 -67.6 -12.4 -84.1 -2.4 -16.5 -7.5 -50.9 -11.2 -76.3 -3.8 -25.5 -7 -45.8 -7.3 -45 -0.3 0.7 -9.3 59.6 -20 130.8 l-19.6 129.5 -38.8 0.3 -38.9 0.2 0.6 -2.7z"/>
        <path d="M679.4 600.3 c0.3 -13.7 1.1 -45.6 1.6 -71 2.5 -117.1 3 -140.5 3.6 -164.5 l0.7 -25.8 58.3 0 58.3 0 0.6 3.3 c0.6 3.4 22.2 137.2 30.2 187.4 2.6 16.1 5 28.9 5.4 28.5 0.3 -0.4 3.6 -19.4 7.2 -42.2 13.2 -82.7 27.8 -172.5 28.2 -174.8 l0.5 -2.2 58.3 0.2 58.2 0.3 0.7 28.5 c0.9 41.9 2.7 120.3 3.8 170.5 0.5 24.2 1.2 53.6 1.6 65.3 l0.7 21.2 -36 0 -36.1 0 -0.7 -99.7 c-0.4 -54.9 -1 -113.5 -1.4 -130.3 l-0.6 -30.5 -3.2 17.5 c-3 16.7 -9.5 51.9 -27.3 147 -4.5 23.9 -10.1 54.3 -12.5 67.5 -2.5 13.2 -4.7 25 -5 26.3 l-0.5 2.2 -36.2 -0.2 -36.2 -0.3 -2.3 -11.5 c-2 -10.2 -14.4 -76.9 -37.9 -204 -4.1 -22.3 -7.9 -41.4 -8.4 -42.5 -0.5 -1.2 -0.9 18.2 -1 47.5 -0.2 27.2 -0.5 85.7 -0.9 130 l-0.6 80.5 -35.9 0.3 -35.9 0.2 0.7 -24.7z"/>
        <path d="M1617.5 620.8 c-0.3 -0.7 -0.4 -64.3 -0.3 -141.3 l0.3 -140 53.2 -0.3 c50 -0.2 53.2 -0.1 53.7 1.5 0.3 1 3.2 11 6.5 22.3 6.5 22.1 28 95.6 47.2 161.5 6.6 22.5 12.3 41.2 12.6 41.5 0.3 0.3 0.3 -11.9 -0.1 -27 -0.4 -15.1 -1.1 -54.9 -1.6 -88.5 -0.5 -33.5 -1.2 -72.4 -1.6 -86.3 l-0.7 -25.2 35.7 0 35.6 0 0 141.5 0 141.5 -50.9 0 -51 0 -3.5 -11.2 c-1.9 -6.2 -16.1 -52.9 -31.6 -103.8 -15.5 -50.9 -30.2 -98.8 -32.6 -106.5 l-4.4 -14 0.5 33 c1.1 69.7 2.5 151.1 3 176.3 l0.6 26.2 -35.1 0 c-27.1 0 -35.2 -0.3 -35.5 -1.2z"/>
    </g>
</svg>
