<svg xmlns="http://www.w3.org/2000/svg" version="1.2" baseProfile="tiny-ps" width="99px" height="79px"
     viewBox="0 0 510 408" preserveAspectRatio="xMidYMid meet" fill="none">
    <g fill="#334155">
        <path d="M108.1 305.7 c-4 -2 -6 -5.8 -7.1 -13.3 -1.2 -7.9 0 -18.5 2.6 -23.6 1.8 -3.4 6.7 -5.8 12.1 -5.8 6.6 0 8.3 0.9 8.3 4.2 0 2.5 -0.3 2.9 -1.7 2.3 -6.7 -2.6 -12.1 -0.9 -14 4.5 -1.5 4.4 -1.6 17.3 -0.2 22.3 1.2 4.3 4.5 6.2 9.1 5.2 2.7 -0.6 2.8 -0.8 2.8 -7.6 l0 -6.9 -3.5 0 c-3.1 0 -3.5 -0.3 -3.5 -2.5 0 -2.4 0.2 -2.5 6.5 -2.5 l6.5 0 0 11.5 0 11.4 -3.7 1 c-5.1 1.4 -11.3 1.3 -14.2 -0.2z"/>
        <path d="M133 285 l0 -21 10 0 c9.8 0 10 0 9.6 2.3 -0.3 2 -0.9 2.2 -6.9 2.5 l-6.7 0.3 0 6.4 0 6.5 5.5 0 c5.2 0 5.5 0.1 5.5 2.5 0 2.4 -0.3 2.5 -5.5 2.5 l-5.5 0 0 7 0 7 7 0 c6.7 0 7 0.1 6.6 2.3 -0.3 2.1 -0.8 2.2 -9.9 2.5 l-9.7 0.3 0 -21.1z"/>
        <path d="M159 285 l0 -21 3.9 0 c3.8 0 3.8 0 6.4 6.8 1.4 3.7 4.1 10.8 6.1 15.7 l3.5 9 0.1 -15.7 0 -15.8 3 0 3 0 0 21 0 21 -3.8 0 -3.7 0 -6 -15.5 c-3.3 -8.5 -6.2 -15.5 -6.5 -15.5 -0.3 0 -0.4 7 -0.2 15.5 l0.3 15.5 -3.1 0 -3 0 0 -21z"/>
        <path d="M199 287.5 l0 -18.5 -4.5 0 c-4.1 0 -4.5 -0.2 -4.5 -2.5 l0 -2.5 12 0 12 0 0 2.5 c0 2.3 -0.4 2.5 -4.5 2.5 l-4.5 0 0 18.5 0 18.5 -3 0 -3 0 0 -18.5z"/>
        <path d="M106.1 244.9 c-3.6 -3.4 -4.1 -6.2 -4.1 -24 l0 -16.9 3 0 3 0 0 17 c0 15.7 0.2 17.2 2 19 1.1 1.1 3.1 2 4.5 2 1.4 0 3.4 -0.9 4.5 -2 1.8 -1.8 2 -3.3 2 -19 l0 -17 3 0 3 0 0 16.9 c0 18.6 -0.8 22.4 -5.1 24.6 -4.3 2.3 -13 2 -15.8 -0.6z"/>
        <path d="M135 225.6 l0 -21.6 3.4 0 3.4 0 6.2 15.8 c3.5 8.6 6.3 15.8 6.4 15.9 0 0.1 -0.1 -7 -0.2 -15.8 l-0.4 -15.9 3.1 0 3.1 0 -0.2 21.3 -0.3 21.2 -3.1 0.3 -3.2 0.3 -6.2 -15.8 c-3.4 -8.7 -6.3 -15.9 -6.4 -16 -0.1 -0.1 -0.2 6.8 -0.2 15.5 l0.1 15.7 -2.7 0.3 -2.8 0.3 0 -21.5z"/>
        <path d="M168.7 246.4 c-0.4 -0.4 -0.7 -10.1 -0.7 -21.6 l0 -20.8 3.5 0 3.5 0 -0.2 21.3 -0.3 21.2 -2.5 0.3 c-1.4 0.2 -2.9 0 -3.3 -0.4z"/>
        <path d="M190.5 245.8 c-0.6 -2.1 -10.5 -40.8 -10.5 -41.4 0 -0.3 1.5 -0.4 3.2 -0.2 l3.2 0.3 3.3 13 c1.7 7.2 3.2 14.5 3.2 16.3 0.1 1.9 0.5 3.1 1.1 2.7 0.6 -0.3 1 -1.6 1 -2.8 0 -1.2 1.5 -8.4 3.2 -15.9 l3.3 -13.8 3.3 0 c2.8 0 3.3 0.3 2.8 1.7 -0.4 0.9 -2.5 8.8 -4.7 17.7 -6.5 26 -5.6 23.6 -9 23.6 -1.6 0 -3.1 -0.6 -3.4 -1.2z"/>
        <path d="M213.7 246.3 c-0.4 -0.3 -0.7 -10 -0.7 -21.5 l0 -20.8 10 0 10 0 0 2.5 c0 2.4 -0.2 2.5 -7 2.5 l-7 0 0 6.5 0 6.5 5.5 0 c5.2 0 5.5 0.1 5.5 2.5 0 2.4 -0.3 2.5 -5.5 2.5 l-5.5 0 0 7 0 7 7 0 7 0 0 3 0 3 -9.3 0 c-5.2 0 -9.7 -0.3 -10 -0.7z"/>
        <path d="M240 225.4 l0 -21.6 8.6 0.3 c8.3 0.4 8.7 0.5 11.6 3.8 2.8 3.1 3 3.8 2.6 9.4 -0.4 5.2 -0.9 6.4 -3.5 8.6 l-3.1 2.6 4.2 8.8 c2.4 4.8 4 8.9 3.8 9.2 -0.3 0.3 -1.8 0.5 -3.3 0.5 -2.4 0 -3.1 -0.9 -7 -9 -3 -6.5 -4.7 -9 -6.1 -9 -1.6 0 -1.8 0.9 -1.8 9 l0 9 -3 0 -3 0 0 -21.6z m15 -3.4 c2.3 -2.3 2.7 -7.7 0.7 -10.4 -0.7 -0.9 -3.2 -2 -5.5 -2.3 l-4.2 -0.6 0 7.7 0 7.6 3.5 0 c2.2 0 4.3 -0.8 5.5 -2z"/>
        <path d="M270.7 246.3 c-0.4 -0.3 -0.7 -1.9 -0.7 -3.5 0 -2.5 0.2 -2.7 1.9 -1.8 5.1 2.7 12.1 -0.3 12.1 -5.1 0 -1.3 -2.1 -4.3 -5.2 -7.3 -7.3 -7.1 -8.8 -9.5 -8.8 -14.2 0 -7.5 6.6 -12.3 15 -10.9 3.6 0.6 4 1 4 3.7 0 2.6 -0.2 2.8 -2.2 2.2 -3.1 -1.1 -7.7 -0.7 -9.4 0.7 -0.8 0.6 -1.4 2.5 -1.4 4.2 0 2.5 1.2 4.2 5.9 8.7 6.8 6.4 8.1 8.5 8.1 13.5 0 2.9 -0.8 4.5 -3.4 7.1 -3.1 3.1 -3.9 3.4 -9.3 3.4 -3.3 0 -6.3 -0.3 -6.6 -0.7z"/>
        <path d="M297 225.5 l0 -21.5 3 0 3 0 0 21.5 0 21.5 -3 0 -3 0 0 -21.5z"/>
        <path d="M318 228.1 l0 -19.1 -4.5 0 c-4.1 0 -4.5 -0.2 -4.5 -2.5 l0 -2.5 12 0 12 0 0 2.5 c0 2.3 -0.4 2.5 -4.5 2.5 l-4.5 0 -0.2 18.8 -0.3 18.7 -2.7 0.3 -2.8 0.3 0 -19z"/>
        <path d="M338.7 246.3 c-0.4 -0.3 -0.7 -10 -0.7 -21.5 l0 -20.8 10 0 c10 0 10 0 10 2.5 0 2.3 -0.3 2.4 -6.6 2.7 l-6.7 0.3 0 6 0 6 5.7 0.3 c5.2 0.3 5.6 0.5 5.6 2.7 0 2.2 -0.4 2.4 -5.5 2.7 -3 0.2 -5.5 0.6 -5.5 1.1 0 0.4 0 3.4 0 6.7 l0 6 6.5 0 6.5 0 0 3 0 3 -9.3 0 c-5.2 0 -9.7 -0.3 -10 -0.7z"/>
        <path d="M365 225.5 l0 -21.5 3 0 3 0 0 21.5 0 21.5 -3 0 -3 0 0 -21.5z"/>
        <path d="M386 246.3 c-0.1 -0.4 0 -9 0 -19 l0.1 -18.3 -5.1 0 c-4.8 0 -5.1 -0.2 -4.8 -2.2 0.3 -2.2 0.7 -2.3 12.6 -2.6 l12.2 -0.3 0 2.6 c0 2.3 -0.4 2.5 -4.5 2.5 l-4.5 0 -0.2 18.8 -0.3 18.7 -2.7 0.3 c-1.6 0.2 -2.8 0 -2.8 -0.5z"/>
        <path d="M102 177 l0 -3 51 0 51 0 0 3 0 3 -51 0 -51 0 0 -3z"/>
        <path d="M108 165 l0 -3 45 0 45 0 0 3 0 3 -45 0 -45 0 0 -3z"/>
        <path d="M114 136.5 l0 -19.5 3 0 3 0 0 19.5 0 19.5 -3 0 -3 0 0 -19.5z"/>
        <path d="M126 136.5 l0 -19.5 3 0 3 0 0 19.5 0 19.5 -3 0 -3 0 0 -19.5z"/>
        <path d="M138 136.5 l0 -19.5 3 0 3 0 0 19.5 0 19.5 -3 0 -3 0 0 -19.5z"/>
        <path d="M150 136.5 l0 -19.5 3 0 3 0 0 19.5 0 19.5 -3 0 -3 0 0 -19.5z"/>
        <path d="M162 136.5 l0 -19.5 3 0 3 0 0 19.5 0 19.5 -3 0 -3 0 0 -19.5z"/>
        <path d="M174 136.5 l0 -19.5 3 0 3 0 0 19.5 0 19.5 -3 0 -3 0 0 -19.5z"/>
        <path d="M186 136.5 l0 -19.5 3 0 3 0 0 19.5 0 19.5 -3 0 -3 0 0 -19.5z"/>
        <path d="M152.4 111.2 l-39.1 -0.2 -2.3 -2.5 c-1.3 -1.4 -2.1 -2.7 -1.8 -3 0.3 -0.3 20.4 -0.4 44.7 -0.3 l44.2 0.3 -3.3 3 -3.3 3 -39.1 -0.3z"/>
        <path d="M102 98.9 c0 -2.5 0.6 -3.2 3.3 -4.3 6.1 -2.6 47.2 -16.9 48.2 -16.8 0.6 0 12 4 25.5 8.9 l24.5 8.8 0.3 3.3 c0.2 1.7 0.2 3.2 0 3.2 -0.2 0 -11.7 -4 -25.6 -9 l-25.3 -8.9 -25.1 9 c-13.8 4.9 -25.3 8.9 -25.5 8.9 -0.1 0 -0.3 -1.4 -0.3 -3.1z"/>
    </g>
</svg>
