<svg xmlns="http://www.w3.org/2000/svg" version="1.2" baseProfile="tiny-ps" width="127" height="48"
     viewBox="0 0 600 227" preserveAspectRatio="xMidYMid meet" fill="none">
    <g fill="#334155">
        <path d="M253.5 226 c-33.9 -3.7 -57.3 -21.3 -68.5 -51.2 -4.3 -11.8 -5.2 -17.7 -5.7 -41.5 -0.3 -12.8 -0.8 -23.3 -1.2 -23.3 -0.3 0.1 -10.9 18.1 -23.6 40.2 -37 64.5 -40.9 71 -43.7 73.1 -4 3 -13.2 3.4 -17.8 0.9 -4.1 -2.2 -4.4 -2.7 -28.2 -44.2 -22 -38.3 -41.5 -72 -52.9 -91.8 -4.9 -8.4 -9.4 -17 -10 -19.1 -1.4 -4.8 0.1 -10.3 4 -14.4 5.1 -5.6 5.9 -5.7 33.9 -5.7 l25.8 0 14.8 25.8 c8.1 14.1 15.5 26.3 16.4 27 2.7 2.1 7.8 1.5 9.9 -1.2 1 -1.4 8.1 -13.5 15.8 -27 l14 -24.6 39 -0.2 38.9 -0.3 13.1 -22.7 13 -22.6 0.3 22.9 0.2 22.9 16 0 16 0 0 30 0 30 -16.1 0 -16.1 0 0.4 16.8 c0.6 19.5 2.2 25.3 8.9 32.1 6.5 6.5 12.3 8.1 29.4 8.1 l14.5 0 0 -58.5 0 -58.5 30.5 0 30.5 0 0 9.5 c0 5.2 0.2 9.5 0.5 9.5 0.2 0 3.5 -2 7.2 -4.5 16.8 -11.3 41 -16 61.1 -11.9 15.5 3.2 31.4 13 39.2 24.3 1.9 2.7 3.8 4.9 4.1 4.8 0.4 -0.1 2.3 -2.1 4.3 -4.5 21.3 -25.7 62.9 -33.7 93.1 -17.9 9.4 5 20.4 16.6 25.3 26.8 8.9 18.2 10.2 30.1 10.2 92.2 l0 48.7 -33.5 0 -33.5 0 0 -47.8 c0 -50.9 -0.2 -53.5 -4.9 -60 -1.2 -1.7 -4.2 -4.1 -6.8 -5.3 -13 -6.3 -32.1 0.8 -39.6 14.6 -2.2 3.9 -2.2 5 -2.5 51.3 l-0.3 47.2 -33.4 0 -33.5 0 0 -47 c0 -30.3 -0.4 -48.7 -1.1 -52 -2.5 -11.9 -14.9 -18.8 -28.6 -16 -7.7 1.6 -16.7 6.4 -20.8 11.3 -6.4 7.5 -6.5 8.1 -6.5 58.2 l0 45.2 -19.7 0.6 c-25 0.9 -72.7 0.7 -81.8 -0.3z"/>
    </g>
</svg>
